<mxfile host="app.diagrams.net" modified="2023-12-08T09:37:33.336Z" agent="Mozilla/5.0 (Windows NT 10.0; Win64; x64) AppleWebKit/537.36 (KHTML, like Gecko) Chrome/119.0.0.0 Safari/537.36" etag="CCrj1B-_wvEn_6eoaFBy" version="22.1.7" type="device">
  <diagram name="Page-1" id="XMs5LwVP9g4iwAkcKOVo">
    <mxGraphModel dx="1122" dy="656" grid="1" gridSize="10" guides="1" tooltips="1" connect="1" arrows="1" fold="1" page="1" pageScale="1" pageWidth="850" pageHeight="1100" math="0" shadow="0">
      <root>
        <mxCell id="0" />
        <mxCell id="1" parent="0" />
        <mxCell id="NjmknjeXAfmQ-sKLG7hu-35" value="" style="rounded=1;whiteSpace=wrap;html=1;" vertex="1" parent="1">
          <mxGeometry x="730" y="90" width="100" height="190" as="geometry" />
        </mxCell>
        <mxCell id="NjmknjeXAfmQ-sKLG7hu-22" value="" style="rounded=1;whiteSpace=wrap;html=1;" vertex="1" parent="1">
          <mxGeometry x="250" y="131.5" width="420" height="258.5" as="geometry" />
        </mxCell>
        <mxCell id="NjmknjeXAfmQ-sKLG7hu-20" value="" style="rounded=1;whiteSpace=wrap;html=1;" vertex="1" parent="1">
          <mxGeometry x="440" y="199" width="217.5" height="161.5" as="geometry" />
        </mxCell>
        <mxCell id="NjmknjeXAfmQ-sKLG7hu-3" value="" style="outlineConnect=0;dashed=0;verticalLabelPosition=bottom;verticalAlign=top;align=center;html=1;shape=mxgraph.aws3.mysql_db_instance;fillColor=#2E73B8;gradientColor=none;" vertex="1" parent="1">
          <mxGeometry x="750" y="101.5" width="60" height="60" as="geometry" />
        </mxCell>
        <mxCell id="NjmknjeXAfmQ-sKLG7hu-6" value="" style="image;sketch=0;aspect=fixed;html=1;points=[];align=center;fontSize=12;image=img/lib/mscae/Docker.svg;" vertex="1" parent="1">
          <mxGeometry x="523.65" y="146.58" width="54.7" height="44.85" as="geometry" />
        </mxCell>
        <mxCell id="NjmknjeXAfmQ-sKLG7hu-13" value="Amazon EC2" style="sketch=0;outlineConnect=0;fontColor=#232F3E;gradientColor=none;strokeColor=#ffffff;fillColor=#232F3E;dashed=0;verticalLabelPosition=middle;verticalAlign=bottom;align=center;html=1;whiteSpace=wrap;fontSize=10;fontStyle=1;spacing=3;shape=mxgraph.aws4.productIcon;prIcon=mxgraph.aws4.ec2;" vertex="1" parent="1">
          <mxGeometry x="300" y="80" width="50" height="81.5" as="geometry" />
        </mxCell>
        <mxCell id="NjmknjeXAfmQ-sKLG7hu-14" value="Amazon S3" style="sketch=0;outlineConnect=0;fontColor=#232F3E;gradientColor=none;strokeColor=#ffffff;fillColor=#232F3E;dashed=0;verticalLabelPosition=middle;verticalAlign=bottom;align=center;html=1;whiteSpace=wrap;fontSize=10;fontStyle=1;spacing=3;shape=mxgraph.aws4.productIcon;prIcon=mxgraph.aws4.s3;" vertex="1" parent="1">
          <mxGeometry x="740" y="361.5" width="80" height="100" as="geometry" />
        </mxCell>
        <mxCell id="NjmknjeXAfmQ-sKLG7hu-15" value="Amazon RDS" style="sketch=0;outlineConnect=0;fontColor=#232F3E;gradientColor=none;strokeColor=#ffffff;fillColor=#232F3E;dashed=0;verticalLabelPosition=middle;verticalAlign=bottom;align=center;html=1;whiteSpace=wrap;fontSize=10;fontStyle=1;spacing=3;shape=mxgraph.aws4.productIcon;prIcon=mxgraph.aws4.rds;" vertex="1" parent="1">
          <mxGeometry x="740" y="171" width="80" height="100" as="geometry" />
        </mxCell>
        <mxCell id="NjmknjeXAfmQ-sKLG7hu-16" value="" style="shape=image;imageAspect=0;aspect=fixed;verticalLabelPosition=bottom;verticalAlign=top;image=data:image/png,iVBORw0KGgoAAAANSUhEUgAAAT4AAACfCAMAAABX0UX9AAAAhFBMVEUa29sQEBAPAAA5398QExMa4eEa3t4a4uIQDg4QCAgQCQkZ0dEYubka1NQQBQURMTETaGgZyMgYwMAVj48Ud3cWlpYUbW0XqqoRPT0SSUkUdnYYtrYXpKQRJycXrq4VhYUViYkRLS0SU1MWnJwQGBgTWVkTXl4QIyMQHR0SRUURNzcSUFCgU8ngAAAOq0lEQVR4nO2ch3arSBKGoYcOAoEkFK2EgiXb8vu/31ZoECh4we3ZnTvu/5yd2eGK9FFd9Vch3eCvwMtBHp+TPD4neXxO8vic5PE5yeNzksfnJI/PSR6fkzw+J3l8TvL4nOTxOcnjc5LH5ySPz0ken5M8Pid5fE7y+Jzk8TnJ43OSx+ckj89JHp+TPD4neXxO8vic5PE5yeNzksfnJI/PSR6fkzw+J3l8TvL4nOTxOcnjc5LH5ySPz0ken5M8Pid5fE7y+Jzk8TnJ43OSx+ckj89JHp+TPD4neXxO8vic1BWfkhoklXq8Xd5u/5erEz6lk3VxPpzOxTFX+kpK6nQ7np0Op+V4FejfRLADPqWOL6LS62yrJG3WybixPZd/18X+89Qen94OhDBhqViIyzSQSuczcbN9mP6aAGyNT05ERnwi/B/+I8zEfp5MgF0URrXNRrz39d95zf8gtcUnzxhhURTbNUrIwl4VeNV23jz/Jfxa4pNDgbElxGY2nc+PxUtGBEODTCHexGY4Xs/Xu0NGOI1Y/Y4E2A6fHguC8rGVaFoklNr1C0YaEIyMCJd9MjPgXtKdwI/GcfIr8l8rfGpEi1IUNbun9FTQshWiSGpmRY8uAj97+hXLtxU+eRK4Qsd1IrLfMxR6p6S5TlW6QK5i+xvCrw0+lWNCEzPd3BZDkGXieGeTVRLjx1+ehx8s838J2zb45AyWo3lPa5vUKOqhdXnPH0CSRwjWUOQPESkdJPmqP0pUiwZPNSTve8UW4n3bbu6oVosX66sYN9bohRboZvQY0R7YismD4qvT43nDFmdzPib/JT+q7WVx1cd5sh51b6pPsOuluL0WNcVDfyRdj3ajFvjUVmDVrQcf+hik96S8yjGEX29wh0+mBVSamKyNAaeYLZMv/Q1a9ZoQ+sexW8hA1cM997cPSn/S9r5j/LXAJ3fippLKNZq+XvQ49rhSQ1G5havnEdtq8DvUoBiRfemv5VJUzWBoOxoxWHWp6WQa4FHe4TtQAPwP8NGZ6mtXJeSNRf9p6Mi3GO70pvbKgqpNA0gsdl/AgOiLImpvam1hT9ytxC8E+GDPR/gytFeP8Sn0tq0O3wbfvgcnWtWs3ZCc3fT5jesz3LeYNi4BWEDoGeqVBS7hiNqWph1qykafiUnGEHsI61n7+OPoix9HX/QYnzou59siffAnd2pTOsDgReK6UFUfl6443Ng9WVurgAqisxElckoLFxu/j2VRDC/UnaCdfFyh7WGAsXkf7PeDwf4VkiUv+g7xR3nkGT7zJPqSYv5yaVVVWuBLyTPXruiFNjQzm0zOYl1todohlrWb5NvA1ToZQeMHHiQ/CQpAcXkaS/gUINiG9gMJNYoUf61z1pe570n0Bem6n89/KvpSCrbrBW3FnY9R+gjr8VpqMdSixhqTnxRsvbBf2mwF9hD5mRp22ChrA38K4qjCBy31mgc84qO5yyNfx0fifvMafUrxCQBf9Lx0tLaE7fDVow+fG+Ti+uF1/kFIq1oB+ID4rFZtaMEDqvooWk/pyJVBVDKdF8vJbpVagoQvrPDhLiuMx6gqS7jLblkcR1qpFGWvQAb98WQyzpWkqC+jD/7zWCx361SW0Sdpr6C88MZBWqhN7svwJstUAN0a3lI9YoJCYC2BPq1kA0W26Zv1TFCdODYWkT7BjsOyKMn8XA4NZyPa9R4fzX6g/ogzf2A0s7uc0y39m7CqYPzGmwdbcAmmrLxy9Wk/PtHcxuewF9i/jV2p4GfRXj7Pxt/AJyMsHeUhKR/Fmys8vd2wm4OrKeuLhpIZiV0t0l5jLLmX5nWp5DStpjVqUs38ISKprEPljW7wBeoN3Y8J6TTrchcj9kvgZKjaq9EFCzsPxIse4GZ8sjwDDjoOGc4v8znuVeWPBPYzRjzzs9/CpxcZnG9e3uVbDKetyMhkKHoIDy+32gyevpHTeOhw2/hRgqr+74HG2SE7ajYn6HWiG3wU2Pw4afHzDlBce5QUAZ8aGRGW7txwykV8+lyeAT9o2LqmfGGcpqm/CuNNe1/UBt+sFkqQxOphBunfjpcxArNFSeM9bpQ1tcYwir5YFXpofQzPr+GAhaboM7fR1xfkXeYKaxgCwn0MBiSGE0bf3vYqeCyy3JT7dMFQQ8MGErGLPixiJPZOF2aTxbK9LW+zeHEuKj75HvDhR9UwSh/YSUAyyakMMFYod2h2r6Vf2mn1UzMAbaCd+vcyfmFiwKhTorjFl/DoFjht6N0VnDzOhCUGmzk8cd1G73Qo9n125Ivj3fdY9OyS72ucDkXWfKoFtSIdJpVtRgYUcIZvXaPpqxahfOGa8ZFrNcAMyesVYhIuf3G9a7gljKiwcdirAg5XuJ1zP0227HHAnDwoHZCfcOQQQbNyxHNjD5LDPi8cvICP8YZisU2DUcH/AfjobQ11OaMgnV8E9TywQMgX8uKy3tS0cnyt8QUBuRJOfuxiykWIYYZ5HghgtSiLLZqqqF545Q6Dy8Q1eEk+yq1GSs05OsdYRxQdCs+im77P7ig4zDAlczHHfdSQ08OUqILp/FR0KMpmuHhTOxzP8eMyWBA/wMeHofWk1vS0Th1a6jb4sIO1MQA1AB9mFd2QUOy0Xh1pVcuSccOS4uJtdiqpqOlImS+qpjrQZdOrFf0g+tg4QZynHDb2D1XwFjPVMz2p8lR8CMC3FdQx2glFWcv6ivJKRMZM8lUcfxgfPRVOXBQmjTn8ZM7OA8Eas7GwsAbUjzDn2JhX+BIyDCwIun0c1Ww3LX5Mt8v73Cet8cv7nLRWdUOF+C4UTeeyU8ltz8svtir7SkkIqxvlaTayahNHYRfb0nLxphTomPDoWdXbiaBqsWhZU7lQAxw2L2s3XT7sCoSdeVX5HuvmtbJQhEEdfxh9aKPwszTEDauApmeMi5ej8Oo5Dfe8O6Qbv1WGa1LO+zDUKYr5IrNFlxFgK3zYM0TxW2BrwJOBB8344NHJuahqWSkJpQE3Vk82EVmcMUEoAwptYwMf3Qjgi25yHx4cD3TArBbVZrKcPhEfV5bqEl9NhD3vDpNdvKnhsz0vlzVoBMhhdJnmBG3f83KjBl6BJ1G37pc/tI/tXOsChiL7aA77eHJX2h/Q+bL42Bt+zT7Wm7g+/5BkE7PP++hTScZO6aj7XF+qfQobfZdefZ9q4nJjnfRnOXHBdpxryok2rX48+rA5xdYnpZduz/ANsB0ZKXyI0e2omcf3NEYob1frnIanBu/51OCk2X9NbvEpnb9nZIM30NxzCSnHOvh6Ck5LpQOiMrZ9v6aaD/hWbLHsjJczHsNXb5RYdpqy5GsHeG3xqZXg1oZivtHMXrXhxZtgsrkJPvslGTzGS05f51BSjUXMPQF7OLx5NiHYH0Tkadm4zHA+iEPC0YQbRKi7sBAWPIXY8j6TmnEJqXYgP52zlQPjwq2JoGGEUgeGj/ioQIFpyO8b7B/CR+FHl7q7GaVclWIsicSOcW+XgErCmFmJz/E2z+eTTVk8MFGlhlu/5SgI8jMBiAeKoy++LGeo06Ls+GnewqkKmBeQ/nAf8sFkm8miHHKl0qmJbc8Lzw8vMHtdg8nJX0R4jT7yhsbws1p3Wbtt8XGrFL8H5O4eGUt6J2MiRXFU+YarJHWo3JiRYvKzdM9jSV6H/uz1lTotGlJweay+/JYZ/gqhWPAhNz2e84i3N2GHBLWmDTYPjH1EPdu00cGiwZvt8cps+2pstx1dB3M/io9zCD5SeIbx+yN8c8CTfdBiuX9HiUc4cn9c+RUsqi/U6kEu5Wk09fPUHdAQBEcGtVdzkW1UX3i6SWekRizGPs5YD4QjA57CxL1yIGMaIwP8OKddxifP3HDDxnqn+ZP4wG/R8Oj8aqKHzpIWWnbY9J4ad7AaV4A8lfpUm2rwv6D4i5gIt04cfVGdHsRalXmhmvJ4hqHgQa8DK9rD8MAqLAdWoYnKhEFLgfGhZeSFET1J6z+Aj4Of//HoJNQ49LDzf7B0SXJ04i9VErtYZDsl32LDJk0FQ373ZtAMi4LCgptfnkZBWOIbztmoNro/2q+zAoh38ATYwNhxqbWUmSgwmuN9fVyKy+N0oua9XzXyITv39oPmbvjoqwW85MC8352EXSs9QzF4dgglV8Ne2ehuioTWLIh7ObmqvqB/5lcikBHrihbDddL4QpcclfP9z2QuqkOpYPxqT7INIvw3v1W9nmGCs20QLyMoK/xcH9zY1+rwwwS252HdPtX+cJDZNNUzXzSNSqar8WQ4K465bfeSJClfzdCLHPizdVKaQ5XUlKbq/stwMjlOhstxDmaIPlS9KloVs1mxBYuS4ubq46PpZDiZ4pAjqZ05SFLu+Wbd1m6nn8VA72bHt6Z3g0hzuYvIrn19CfQG8clXzVTzRWUbPdvlq82N7XwlNFIPazONdur0qyI8B0sMGm/zdFkEw96f9qVwla/BwktoBqOwq23p+ps2WL9s3iIxGFUrSdEXMGhZi+gP+00RGFqxWPfXlwdz7Rbq+JNAPcXXBPzKoEjoW/Zarz6vrwtHfxa9QEKThAW9RzHRaVyA6vqLSt1/F5Et/uKwO86Py0v5IxkjhkHX8/+fxfP5siB2LRzf+D0v+rMssi8TSb3yJXm2/uN+jAA9Zq/03WDiO+//jZ9D6+1FZJV/t08OUM6+/qbtP1NyvReVF+y++3d+Ta4CyLTU8kdcRzAMh/mf+VNoGWwnp5fP4fS/fU/9ob73Y3ypVsvXWj/wMU7+THgotoLfu/7v/l0G4JXy4+R8+DyAt09+3Y/wSzn8VRCK//4C/VvRofzfpOEkj89JHp+TPD4neXxO8vic5PE5yeNzksfnJI/PSR6fkzw+J3l8TvL4nOTxOcnjc5LH5ySPz0ken5M8Pid5fE7y+Jzk8TnJ43OSx+ckj89JHp+TPD4neXxO8vic5PE5yeNzksfnJI/PSR6fkzw+J3l8TvL4nOTxOcnjc5LH5ySPz0ken5M8Pid5fE7y+Jzk8TnJ43OSx+ckj89JHp+TPD4n/eXloP8Av1W4dCvEpP8AAAAASUVORK5CYII=;" vertex="1" parent="1">
          <mxGeometry x="114" y="236.75" width="100" height="50" as="geometry" />
        </mxCell>
        <mxCell id="NjmknjeXAfmQ-sKLG7hu-18" value="User" style="sketch=0;outlineConnect=0;fontColor=#232F3E;gradientColor=none;strokeColor=#232F3E;fillColor=#ffffff;dashed=0;verticalLabelPosition=bottom;verticalAlign=top;align=center;html=1;fontSize=12;fontStyle=0;aspect=fixed;shape=mxgraph.aws4.resourceIcon;resIcon=mxgraph.aws4.user;" vertex="1" parent="1">
          <mxGeometry x="10" y="225.75" width="60" height="60" as="geometry" />
        </mxCell>
        <mxCell id="NjmknjeXAfmQ-sKLG7hu-23" value="" style="rounded=1;whiteSpace=wrap;html=1;" vertex="1" parent="1">
          <mxGeometry x="500" y="225.75" width="120" height="104.5" as="geometry" />
        </mxCell>
        <mxCell id="NjmknjeXAfmQ-sKLG7hu-9" value="" style="shape=image;imageAspect=0;aspect=fixed;verticalLabelPosition=bottom;verticalAlign=top;image=data:image/png,iVBORw0KGgoAAAANSUhEUgAABLAAAAJYCAAAAABXjUDGAAAABGdBTUEAALGPC/xhBQAAACBjSFJNAAB6JgAAgIQAAPoAAACA6AAAdTAAAOpgAAA6mAAAF3CculE8AAAAAmJLR0QA/4ePzL8AAAAHdElNRQfnCxYCDB0JAE9zAACAAElEQVR42u2ddZxUVRvHf7PFLtt0d3d3d7eApIJIKaG+CCaICoKUiggISEg30t3d3Z27y3bHef+Y2JnZ23Mn7vJ8/Xzkzonnnnt27m/OPfc5z9ExEARBaAM3ZzeAIAhCKiRYBEFoBhIsgiA0AwkWQRCagQSLIAjNQIJFEIRmIMEiCEIzkGARBKEZSLAIgtAMJFgEQWgGEiyCIDQDCRZBEJqBBIsgCM1AgkUQhGYgwSIIQjOQYBEEoRlIsAiC0AwkWARBaAYSLIIgNAMJFkEQmoEEiyAIzUCCRRCEZiDBIghCM5BgEQShGUiwCILQDCRYBEFoBhIsgiA0AwkWQRCagQSLIAjNQIJFEIRmIMEiCEIzkGARBKEZSLAIgtAMJFgEQWgGEiyCIDQDCRZBEJqBBIsgCM1AgkUQhGYgwSIIQjOQYBEEoRlIsAiC0AwkWARBaAYSLIIgNAMJFkEQmoEEiyAIzUCCRRCEZiDBIghCM5BgEQShGUiwCILQDCRYBEFoBhIsgiA0AwkWQRCagQSLIAjNQIJFEIRmIMEiCEIzkGARBKEZSLAIgtAMJFgEQWgGEiyCIDQDCRZBEJqBBIsgCM1AgkUQhGYgwSIIQjOQYBEEoRlIsAiC0AwkWARBaAYSLIIgNAMJFkEQmoEEiyAIzUCCRRCEZiDBIghCM5BgEQShGUiwCILQDCRYBEFoBhIsgiA0AwkWQRCagQSLIAjNQIJFEIRmIMEiCEIzkGARBKEZSLAIgtAMJFgEQWgGEiyCIDQDCRZBEJqBBIsgCM1AgkUQhGYgwSIIQjOQYBEEoRlIsAiC0AwkWARBaAYSLIIgNAMJFkEQmoEEiyAIzUCCRRCEZiDBIghCM5BgEQShGUiwCILQDB5OPHfqm3gE5HB2DxAEoRmcJVgRW/edepQMIGvZBh2a0TiPIAgJ6Jgzzvp4ytIEAMiZ5WUqgALjPs7i7I4gCML1ccrYZna5+QlA+YVhb57G73nfDc9GVb/o7I4gCML1ccIIK23wPwB0Eyd46j+f/OgG4LuhtbO7giAIV8cJgjX+FwBu//Q3Jbwt/wrIeqKys/uCIAgXx/GPhOd/BYCv0/UK2f4EENc31dl9QRCEi+N4wZqRCqDC9+ZJXbsBuL7c2X1BEISL43DBStsKAD+6WyT+DwCWObsvCIJwcRw+h/WwGICcL6z8v8rfANyjfZzdGwRBuDQOH2ElAkALa3/VPABS7zq7MwiCcG0c7ukeBABlgbgHiT7Zs+tPz3YfA4AwZ3cGQRCujcMFK0++F0AWjFkQDwCB2YODgyNvPXFOWwiC0BaOF4mWS4Gw0Dn6D5GRZjm5nN0ZBEG4No53a/gAwLEgDnHyKu7sziAIwrVxvGA1rgGcujo4Y0YVeiQkCEIQxwuWbiqQ9smwnBkyOji7LwiCcHGcEK2heW/gxPApGdI7O7svCIJwcZwRDyu80jMgb3KoZWqdk87uC4IgXBxnxMMKXukFvLTSK4x0dlcQBOHqOCfi6NIPMqa9DXZyVxAE4eo4J5r6wF+9rJN8SK8IghDBSds/fH6pvlWKlyI7BEG8Szhrv5qyhyboLBJiKX4fQRAiOG2DLY+f51mcO+Wms7uCIAhXx4k7Ag79zuLjZud2BEEQro9z3hLqSat03exTzqu5nd0ZBEG4Ns7cc9lthPmnkM6hSg0RBPFu4NRN4qtafDpdcV60U/uCIAgXx5mPhDjS2CrBu1K1Cj7+nomRMXExkTHRUVGAX9EitZrRRvYEQcDJUT6PWycknDmTodBhIM+UD5zZTIIgXARnjrASyj6SWnTGZ85rJkEQroIzBevLaZKL+jyi+MkEQThx0n3ldMOBbsSvYmXjdzuvnQRBuArOm8PaNdgwuNOt7NIwPdm/R/38qW8eHzxiWfqh09pJEITL4DTBWjEo2XDkt2ZIjCm58focAICJCz92ar8QBOGCOOmRMO2HAUa9QvTmdL1yX6HXKzzZaVmhgHPaSRCEK+GcEVZ4/+3cGf5Zk7zYoxtnD5ywCt5QwSntJAjCpXDKW8JTfQSmpLK4xWdM9H9Le4ARBOGER0I2p7HQFHoih16hNekVQRBOeCR8PVCBi0JPhzeTIAjXw+EjrP8qKHGpCnd0MwmCcEEcLFhp33dSFERm5HLHtpMgCFfEsZPu8b22KW3n2B99HNlSgiBcEIcKVmzn/corl17YUHllgiAyAw59JBxog17hdqNmu5wZvIsgCKfjSMFasUFSMfcZDXWcGQfblvjyrAPbSxCEi+HIR8I6pyUVa7kHDzZtO57CnZuzfqOalQIc12iCIFwHRwpWmduSio2ZBQBvt2/dFcNTQle0YunSZUtnc1zTCYJwBRwpWOOmSyo2dqbhIGH/lm2vBArmLF+hUs2K7o67AIIgnIsjBSuu7REpxd5bm36ctv+vrSmCpQPrd+6e3XHXQBCEE3GoW0PiwDUSShV4YjHn/uLn+cKSBc+uE8s68CoIgnAWjnUcvV8qTUKpk3UsP18bdVCkhvuIGZ6OvA6CIJyCY5fmFK8vpdQCq88V9o0XqZH6e+sIh14IQRDOwMFrCdtIKbTCOvqM25TPxeoc7E1OpQSR6XGwYNWWUih5hMXHQw1HnZ1SUazS7lWOvRKCIByPgyOOPisokJmlSq0qgX8eALCsv1nygqFA4+KLxUzXICd4gsjsOFiwYv14MtxrtGpVywtA6oRfGbJfyZeedbuMtCt5ntehl0IQhMNxsGAlcMaI8W/ftUW62/q/g5JQ9bB/enbRR5Js72rt0EshCMLhOHgO623GpOAPtr1Z1dNsmU3frZ64+J6Z75VEIXrp2EshCMLhODimu/VqQreWH3TxBnv6JhyefgjOkxUAWn81Cbv7/5PFWKjZfEm2X8RTiD+CyNw4WLBOWXwKGj68IB6t2nk5ypgSkD9XtmxZDgBY/WyTYU9VFJFm++uvc5av16ipl2OviCAIx+HgOaya58w+NNiYEy/H/cvXguKrauoPtnQxTy5UIFfk3We8ZwjqPFyS7wRBENrDsYJ1tpb5J7+y7uHPYvlLuw+ZUAhAaOsLhoSgho1rVg4EkNZHaFFi7Z+bOfKiCIJwFI4VrHY75ZV3q1uRPT0YDwDutdq1qWZ6RfDr/wTrtZ9WzpGXRRCEY3CoYP3bT2HFXK3btbSIIdPwmHAFj4+nUFRSgsh0OFKwLjaMVVKtcoeONa28LzZ2F61V6O+WjrsygiAcggMF63zbENl1sjTp2KFwhtSnVd6KV9V99CsNsggic+E4wVo2MkZmjbItWzaxXsoT7usFDJC2D3Thv1s46uIIgnAEjhKsm1/K2vPZrWTN5i3zc+WE5gBu1Y6SZEU3/Bc/SQUJgtAEDhGspAPzt6VKLl2+S5M8hf35clNP1wM2dZfY7KIzujrg+giCcAx2F6zHVy+fPRAttXT2Js1bljBPSAvJbVXkl7KdgAlTpVpsPks0lBZBEBrBroL16t/NVyMll/Zr0Kx5FavXgWkNTtb/x0LBcLzZ6q5IbS1513uPD74obcdrJAjCcdhRsJ7+b0OK1LLedZs2q8Wxj8SJ+kD2A5XMk2L8PVf0xKMK0l0k3Fr17ewvuTRBEC6L/QTrt68lvhX0qNW0WV19oIXQ0KgouGXPlssYqWH9ewDyn7UIzZclyW3yBN2ML+Q0xqtG/fJFKwXZ61oJgnAI9hIsNnaOpNNXbtG0kR+QeuP05bv3HhtHZB4lKzXunA/A/hYA0Hqn+U6FvnFA73l+pR/IbZNPz2F15NYhCMKFsJdgfTFDvExQi7Zt8gEvT50+fS7jaMyt/hcddWE5GQDM/zg9XR+0NOfX64+JnyEDlYf1pYdDgtAsdhKsbZ3F7Obp1b2uB5KO79p9mbdMlXl16p4CgBy30yOSXqkspQHZsmf38/Xy9fL1AoD4BERFRkZGRkbDv8eARg4Os0oQhErYR7CSSjwVzPft0ae5O55v27VfeJ7LY1LApwCAj9ODji4Yyls8S/78BfMVKJA3W/bsPJrUZxWAwv3603tDgtAi9hGsJYMEszv8nRuPN2w4JWHf+l4H9AsQ5w0zprTam7FUQPESxUuUKJ5fJ2YuovQbAEDt/u9nEytLEISrYR/BartLMLth94QN5ySe2F/vdOqxta3+84WaFjIXVK58ufJlCwBvxlxvMbaAqDmTx2mWDgPbeIoWJwjClbCLYKUGyV3nLI7nvMEAENfEuF+qrnjVqlUqmdYbNjoKZFstGlLmYrX041x9Blaxw9UTBGEv7CJYkUEZ09xLVD4n2xHBgp4/lMa9IYcAoGiDmlUqWwSPOd4AALLsbWhMeLX4eErXYRmMJPhZLGqs8Ukvbzt0AMFDyOIdF7wrffS+s9vx7hG3aMvt7HU+0Lxfj10EK9x6fqhEu/YNsi4cHW+j3QLe95lHtXr162fc4/mrKQCAnDf0W+2wmd/GAznfZLThZ+Uhn+OjYRkDbhF24eaUtYkAgAFL6EWtQ4mbPTsEAHSjZonO87o4zB7kMz9DvRm3GGM7ayltYToe9b4/GMt9xg6GIkMYY4ylfgAAJU5kLJea8e/l3mWfXTqBsORef3dTn891dmPeKdJWFjT1/A/OboyN2EewRqbLQfaljLHEf23feqvkiE0R/Gc0Tk15hjDG2NdAYI91yRzlrnHarrklzdl/iMxOyDDzVxz5U53dnneIS/XMet77ubObYxv2EayXeYxjogGvGbv/bR7Yhm/XBQ+Fz2iKIbOQMXayzpJLydzl5vGcofJ/Tv0zZHaSZgdZ9vdxZ7fonSHuS8uX4b86u0G2YZ+5hDzHGgFAri/uL02dU7f45Fe2GCs0fEfoxiFFhAuZ4kI8BPBl5Q8q82xpzRdc+XKHFhft0hUEgN2Vx0RYppxTZIeQzb6KvyRbJBxydotsw05b1Rc/fPtxXOUch2YduGrTrL5bjY4dqkgpaHr3FwycPtKEr9iFE7wW9tcYPoXWGdqDh2O3ZEi75+xGvRu8/GKlddJVZ7fJNuwkWEDpAv99vjPBJhO+LTu0l/owuX3TlpNpAMoNAgLc6/EVGydgIm3utnnt7NUd7y7xv0zjeDssLSg/YRMpv0/M2M+hzm6VbdgrWsON2f/G2WSgYIeOTdNdpMJvPn76JjqCwTtHvsr1s3LWeHP+QVKJVlkAXKrM8+52TW+R3hjzC3m/q8umzx5xJfdc4+yGZX6OfMI1mtKlaNqlxD6CdWjaLlvsWj4I3tx78NIj8+xs2xW6vz2sFsGXlauX16OTL4AGa/LJMEiIcHncHu6Mgf84u2mZnYffruS+B9M07Yllj0fCm//bbkNtv5Yd2qdvPPFiyWJr/3iPdmWVWY7sFsGb1/M3AOcXLjtWb29JO3TJu8ntiWv51rf7OrttmZyXP/6dxJ3jpmm9ssMIK2rCAsmh3DNQunW7JlnSP4Z+tzAFCOhUpYTbjU2nAcC9bodeRZTZjmt7hD/TZ0NbAHgydmOevRXU7pJ3k8c/LOP/Inwx3dnNy8yETfuDd0LGM0mOJZdDdcE69MFjhTUDmrduXcQi5b8B4UDdT7voA77v/V/e2nXqBCltWFjHk0LZnj+PdQeA6eNynaG1OrbzcOYCoTvju0nObmDm5c3cOQJ7VXnbukDOuagsWMkTZkkIcpURr5qNW9Wznu/e2y6lUKcPqymxl5Hr3W+LlKg7vyIAfDGjyjF6YLGR47M3Ce+c+8s4iZYImVyfvULw5XxW6dtNuSLqCtbbHgflV/Kp3bhRnYwv/tZ4dA/zCFSpYWzh2DgA8K9T0CP1zXXusBHuA3/ID8Tlj+i7Qs1OeedIWT/rjFiZ3z9xdiszJWzvzD0id7S/tj1KVJ10v9VRrj9gsWrVG9TMwpWzYuB8ZFerYTdGHgKACt931o/iws+f2H4uw1AwdfHqyZ8ha4cV/w4UjatF8HFt2crn4qWyihch5PJixT83RQtp2qlBXcG63DxMemG3EtWqVasWzJufXLq3dGPC3Jm6IhkABv5ldOwKbtHiu9c71u9NtioZ93nt+vAFPr3ipWK/vEO8WrXskqSC9NCtNgmbl+1JlVBO44Kl4iPh9aYh0gpmrVO7bNkyflxZ8S8DVRtWGSxuXr5bP5bqut76bxW2btUxq3FWq92odRb4e7C6rZDJlfWvkbNIkaKFnOnGGsGSYxCTHJ8Av+w5giVUSN60dLeUWwYAtnZ04pVlQk4uXRMhrWQOiXepi6KeYN1t+FpKMbfegxplvA1fhFQGgMk/J6DkeyPySzEkTsKVBzePnDLOQGa/mZOjzNM1Ky0XPX9RfDiAWqfV6hYl7O1geMHmXqBA3rx58uXOHxgQ4G6bzXSiU1gEEuMQnZIWiYR4RKWmRiE+wfRvZFpKNOISLSvl7vBTbmGzbOmkR9Ibsb+Zg/ryXSBt7c/SVwjmknSbuiyqCVZ0bfHHZwBYyREeN2TMqm7rARxpDADI+s2Xto9bk/au2WIxvfjzBJ6St9etu5Ih8UpFOI20Uvc5Ur19AwN8fQP9PdwC4ekHH2/4eSLQ2FFB6e6AcYn6wVFsEsJh/DcpFjHJeqFSSP9lgtlhvfbLsXZS87F6XYcbg0/JKJ33hbPbaxNqzWGxgdL0CgUzJiX33dtgBgDc0X+O++raCtvccZMOrdkUbpmU5WO+wqW/+ebOxj3Hzb2Gsn5VRqV+UcJRLr1CQoKMGUI74COY+7bBLVnWaNJdNXa/Fy2nuMbnsNQK4CfZcTn3YY7aMYZ/vzWW2m1DU+7P7cQxP9ZSpFbM9i87FNUBgFe9KSGqxx2Tw5fO/k5w0l6wzd1lWrvn1B7OTFySqf0Fnd1g21BphHX/O/68whVKl4r5wvjpddN+E4taFzG+M/oh96g0AMhRSGE7nh8/uvsuZ05rkZq+7doBMa8ikb2A3ULuSOS6k8/PTXWhzBsbZFqjEZZajJb5kK/aXKhzUOnmHM7t7x/QoEGNatlhEYcqbdnqwV9Z73h66lSWVsUBjCx+OUKXo1gLP8gm+erJE8f5lwVVl2LDr4Q63WEbzhZMbuoKZe6RasUIuTWoxJMjMito/JFQnZtjHcf28boaXVpXMcq5Ra8mzVsy7Afz4J6JA9YCqD+rJtCmjYLTR165dPHSdeFFnRpa0Vx3s7NbwEVNoUzZb55ohKUSd+W+NaMRFsAmZ0iqNLi7uXOC1YxswpzAiWYfR64FgON1vpkoc6496cGtu3fu3uYLGe9WuXjiSX2ERb8cavaafflougtGhcwr6B9XQKoZA26uOYrUILIXr2k7uow6bg2bu1p+9uw33Or3OKvFI2OWYcNLm308U8fYiJ7/SvwiJz56+ODOnTuPhPwUg0cNzQskz5mQAqDYfWmGXYK9nWyLLW0PWgo+9YWWjJBlzSNZVnGCl7Rql+VVKCPxdb6Losov3TSLT54Dv8owq17wjtmHLCcsIzDMNonmWq+lfI/YkTFxXsEBac8fPnz48OGDF+I6O3hqDuBFPs8vcg8A1FuW6Aha7u2nNEaP3RB+pM6xrkekREMANP9c4kK4rW35RFYFjY+w1HBruG/RBzUvcxQZZl4iV4JFXnLz2unj2h8z1o3e/lXX0nphdZe4xC9rzrKbGWMsrg9jjHUBUNbZr2PlETlBwWsHu/KbSIsfNJFjzcfZHZyJCO8nS4PKObu9tqHGI+FUMx9y95++MP56xkQn5zMO4G5UMX8G6LA8yNJC2q3Vf78EAHgctXSBfrJ2y2npjw8eJSpUKJO/QF5T/IckLwDnampwBVXItHkuFbhoc2exEmdmbUqUYgkA/GT5OhLC3Jm7LEJy4fLXJBd1SVQQPbMHPN8thrTbn5QA4FG0+98vGGOMTbE4aZ6lGbaGT/pZ70pd2ywn9u8Gkn88/FuN//diAncDGwFuKc7+aZDN689c6VXaRQktDp0tNR5+gLM7N5MRv76L1HXyFZ3dVttQQbCi0yckvA07kKeMM3ZftclHUhljjFmt5Gt4K4Odu60AAAeNnx9+JiVEAAD4df79opAg/QLgjbN7WgEvh7uO00yYpBanrqskyVqws7s28/HsK2kvwis5u6G2oYJgHTX1hW6FPiXlPUNCV7P5rM2WM/HeSzJaWpUXwDf647sfSvzJyD/mQKJIC88DuOHsnlbE8XJO1ikj/lJbnPpPXgnmsju7YzMj0ZODJHR9ZWc30zZUmMOaM8Z4NPhv/b8/fA8A8FzU37xcwszfzP0LvcIzPvEkrFx45/c+AG7+vEpSZCXvPgMbiI9C0gJicbiRzRfqDBJ/nipvl5OAHJ4W8/WG8Awp0WARNrRDxsxH+OdLRMtoPMaJqxI2bono/Vz1grNbaRMqCNaYOYYDnzt6/8HrVfTbO80ca1UyedvifaZ52Q8X81q8Nnm9tK0sOi7KKalclctYL3d5rqtwofsjiSUrN29QpqDw28XINMQks4jYuOiouLjwuKhXz19KiwHRTs5Wk/9+LLa+Lc9Le3XXO86B/mLRY6qdd3YbbUIFPyyTA84HBn/nqXq9ChppXdKzW7fYQ7sO30iFR4vPW/DZuztxtdSdd/4bM01SsL8Sl+GCzuPSqHau61Ep5cr80Vy8UCBgPTGY8PLF3RtnT4ts/iRr57O+pduIyCD5YdmJZhd6HRYuoXE/LDUFq73+n7DV+n9LcTlN+bZvj5jzL1vyOnI+nrxUbB/W/G+NdxdbufWbsRJ8s4oAWnNrSCf77vckDG989hQUL8SFd9Gi9YHEQ+vWCW2nkkeWzRqHGr8VLOA6LxMyG7l39dwmWEDjgqXCN8e4jMRTHy8UWwyCw/sj69e4N59evfi01CLRfaN/CT86uYVhuX/M+Iq7xZsYpGXBgs/6JuKF3leoVwaytP776SwBVcomz1yFTVkE82mEZTe8N7QQzNf4b4UKzTc+YwQbpk+MAvLgrlxL94cW+0PCFHPlLA2+2Rt+/Oc2/gBwp+2nov6K/tDuIyEA783FRcs0tfksAWPufcv7ZlamYKHRZMFsEiz74blWMEgSjbCM897GGLpnDf+yH3mrJF9b/VWXOj0eWiRe6VN6gRRX6SIVAMCz3oSdb8/M6FEU7A/R+XR/TY+wgMDVoj4esiaZePD94WxZnizZazE/ry2Uq/Gfedcm+G8hUdK4YKkwh2UULMOXMMokQ8t6trcqev0l4l48uH/3VjIAnK4wMT3r6LTtEl9Yfpbe+Jo1gfBLT73Fqrhre4QF1BgxR6SEOntkVz7V9z/ODLkjLLj90kQgl0ZY9qRx71X8mSRYxv1lniR4A4DZ2vHBR0pZFv3Scva4iPHg7bKFN6SersMIy8/BEh6GUjU+wgK+Xyyy+k6lMUvApv6rudJlCxYaNxR4uUkjLLsyVkCwNN71KjS/nkGzU/WaY7ZP+etmVlGoKlt88tavpw1f2jHfWH69ylF/1PjBHarl1f8ol5y5WcGvc4rWR1gI/th2G5LwWMHpHaEgPM8IgTwaYdmVmgJrOmmElaPUbf3B2WoAYD4SeN5wbQPzopZ7cX4YjJiTRw6JRGMIDT3V9adSQNrr+BiWX07g0PjwfIajZCAh2l9GVdfj4xkOOpH76hoZg3G5B8g31MUvhjdP4z/zLk/HmbxZGhcsNb45xp/klQAAi6AoL5vONHcCtQyk+apVkYBWPx4TjR6Tur5hBOCWt1ilynL0KrRaFeMCkAhofohVqqbtNqSRY2PGLQiDFXxPvAXC89MIy74IvPEgwcIHhn+PPgSsv4spn9c9k/7JchnTpr2POebZA1c8ybDJ1xslMXw+uhWy3nAYDuCtAhOuRAeHnanaNxmS5E9hQXBnNRph2Zdq/Fka73o1ml/TMO3OFgMZN3A6U7f3ScPhtc0SrDXvG5VhoVmgpE26LDm8BThkOH4LvWhpmZaOO9UXGWJEBCkx04A/i0ZY9qV4EG8WjbCAQYZ/fwsBxwZOaWvq1Zh0JAahi5tJcbPaWLdPhofEP3wkVLRiGoAHhuMQaH+EVcVxP41e86y/1YpCCZbmH5dp/Gfe5dFV5c9ydttsQ5VvzhBDCKSoH2H+3c5Rybgy+fzExv66nIOluRacumKVoJvZT36bHu4C8Ax6oXoK7Y+wfIrabkMqjfpbJSgSLF153iwaYdkZfj9iEizAd5Lh4K8H6R6MdQ+/vnxP4qYRguTcNFZBrY1pAMoBpzsicwgWytpuQjI/WP3hFIxwAfBHHyTBsjP8y0I1PrhVp/mDDL+lScOYyRv0q0ZuWCgv+BxnA/tfEd3+gIttANAZGBcNxGSGOSw4Mvho4cGWn5VFl+dfAanxu8b14RcsGmEBcJ9oONg7BwEG14P+k27/pmRoZGm4x/ll8iKbGHh7HAA64/SR7MA9IBMIVjFHnuwry+VOygSLfz9oGmHZGRIsYboYv5sTrsEw1xIxscxoSWGOLclh1qIy391fV0VZg3amAKhUFAdQHLgBZALBUuC7qZwClp71agsWjbDsDD0SCuNh/H4n9F1nS9Bl988e3v5fgwAgV41+867fnKQ4BsEBAGgOnEA54Cag/beEcOzWql9azGIpm8MK4s2hEZad4V8Lr/ERlipb1QMY8qNhuupKT1vMzP4EJabZYsDIOQCoBnYS9YFrQCYYYTlWsPL1Wm72SdkIi1/mNP4z7/rwx0/UuGCp9c3Jo8oeD60/Uak5iTcAoBpuh2WtalAvzQuWg9dCjjH/oEyw+GvRCMvOkGCJoUo0gT5qteZhCgCf0jiKWl54+QzIBILl4H2gq5nvi6a2YNEIy87wC5bGu1615jdW4yWW1aZd/25WaugBAOR0x0bUB04DAKIUvAFwKRz902j+ilfZHBa/YGn8Z971ybQjLLXmsKAb+L28CjVbpSD6VUhIEpLeGN21IiyLlNzfRWFr3gBAEEL3ozVwEADAwuWEeiDQsXh6NDNlj6NeHnwbiti+GyYhCL9gabzrVRMsDJwkdTdBPWEN0sOPvLpw4N9XAE69b1GkVi2ljYkEgCxYl5y7PrBPn0aCJQ/37weYjnMrM+FFguUk+PcA0HjXq/dEW1jmvi0P2labb9wJL0+7Xx+MArBBdIsviaQAwP3XU9HdDY8N0Uw1P4nlaPrWMB75VrbFDgcav2u0jMa7XsUpuPflVrg4LP9Hp4wffOa0A55vUaktWQHgbcEnGASsNaSRYMnEbV0Rw9FIX1vscKDxu0bLaLzrVRSsLvIfL2MW1a0wyxgKtCWA7zLMjD9QNOjSP/0lo1p1oMSdxd5AJvAcdThFzg3zBeA56kebTVmh8buGcBoqClZ2RXt5Xv+swIf6jcFuALix1Dq/0AYlVo07+YwH0LXkh5MAEiwFZJ/35uSWA6/niO6KKBd5052Eimj8t0K9SXeg+16RArU7FvWMPLbGFNk98Kzv0+cvIqMPDAZwdRkAfP++1Rt0jze3ypg+7H/eT5rClsz/HAAqGtxZP/0pih4JFZG1jl3Mavyu0TIa73o1BavrSGFXp98/AYCPPq5vTPDLn9W4rw0utUsEgGezvrKq1afnXqNIbeiZ9mK8pKa4D5kIwH2BoaZPm7U0wnIlNH7XaBmNd72afq+5Ggnn99b/U950zucdnxqOoifWNQRyn2Id0D17XuOmxwmj0vCnxIeJcVUA3XTT8KAJSLBcCY3fNVpG412vqqN+D+Hsqfp/vkvXnANlhh1PTb6/dnD+ScbnxJivrat1/+ae/sC7B/D0prSm+Owb2nRtuq92VZBguRIav2sIp6FT86vzsoDw+GfELC+kfT3VMtE71XLPCbeLlSwLxOWstkPvaZ06ZAmuVIQC3mYHGhxVUtN1uCkYcvRqBWe3jwPfOJ6Mlnuc3bRMTgLvYqpWu53dNptQdYSVt4Fw/p8V/3vS3EqvkGC1R06adYGszY5VOQEAcF+07Ctl92WwJ42wXAkaYTkNjXe9umu3xWLM3OlY6hAABE0+cf1fy6WxxRcZj9aFWdWqiQcNh70FAF3/n5St3dTlIMFyJTR+12gZjXe9uoLVPv3QizvkkX5nwkpf1C3XJ59FRo0exgop263qFAHS5pdaaJPvTk4SLFeC/LCcBgmWGcXT90mZK+R/cKTEuF1/3LNIOj3U5BNxz6q0DwCEfVznrA0tywUkxap6rYQNaPyu0TIa73qVw3m1Nh0V78JTJGDmLOD59LafWiY/Wm06zG5Vw7B/89k6NqwQCQANsVwIjd81hNOwm2B9vp27hPv2sWPKCNoI7mqVsMPwb9q3xyQ04T/eHBIsl4EEy2lovOtVFqymXgDg7g9cnMhdIk89QHDtf9HNhaxSlhneDFb5Wco6kefn+HJIsFwGjd81WkbjXa+yYPnXA4C+P/GXeF77o663BCxkvZbBX77w8R4A0OjEBCkLiXpu5EplIMFyITR+12gZjXe92iHpWwNAoXwCJc4t2iw0+12OIxB4wLrlQcCRdtFSWhBcni+HVj+7DBq/a7SMxrveLoI1VenehEEVR23jzOh3rSdwqIWkMRLn1jsMQJiU2oQj0PhdQzgNNaM1AECV3K8NAYrl4FuvVonc2XPk4d9mJf+aYWOunGlxRMJuopyupQkAQlS+VkIx5IflNDT+W6G2YOlarpBdJ9ekfjw69Nscv0JV6zb0A4CmF7f8eGHEMgn2nhTMqFmRAF6rfK2EYjR+12gZjXe92oKFZrIFq9a2XHxZI92nXfkP3i3ee88HcOva9fYNKQbf7h2cIY0Ey6XQ+F2jZTTe9arvA9tYboV83Hr1sHDpMRfcRz46P7ub738D84+9BQClu0qxWGVVxln9CBg2KyRcAY3fNVpG412vumAVK8iblSMv1/aOn3OPrxKe3JlTvc5OXbXRG95cGBE3u1zTHZBKy3kZkiJBguVCaPyuIZyG6oLFP8RqH/IiIXTzmJJWyQO4S5etBeB0uzrHALeqcw8XY4fa198vsQn9fku0SkmOBRBCU72uAgmW09B416svWE34MnYvALJ3nnV7i8UYrCDffsxz3QHgdKO+zwHUvruvX9YTLZpek9SE/JXXWqW8AYAU8hx1FTR+12gZjXe9A0dYKUNbXAOg62ThalWIr3iNTwAAbGWZ39MAt+bLXy6od6jGz5JcJhbus0rQx46nWXdXQeN3jZbReNerL1glCvBm7a/c8yoAi1DFGQToVM0v7wMAJhsMxYxqfAcAAoYcv/XDoYlS2pDnB6sEvWDRJJarQA/nToMEyxqB94Rp6yrVndnOFFim18372zK896ueNq1Un8cA/P8wNu5YFcMseulxe6SFmCls9ZlGWK6Fxu8aLaPxrnesYAE49flO42HupWWKdfjSuoDntsJpq8pMiAI6L/A2pMWP6BIKW3gGgEZYroPG7xrCadhXsLybZhEoWJM7M9/OnEiYWnJ+GgZf6GUssqXaOcgh3vKh4xEAGmG5DiRYTkPjXW8HwSqVx3Q4/8Ah7/QM39mPQjaZ7XrD1XWJaUDZIwWAN8Oa3EPZ1aHrBpUAADxtuFxOI5KfWHy8DoBGWK6Dxu8aLaPxrreDYKGh6agr6kxIT589unCOLmfrmj7f5qr84S2gzNESAI5WXgD49Vh09+mkvAASBvwiow0Bgeaf4vRh4mmE5Spo/K7RMhrvensIVvruhAnA6PTwolkAwHuFafni/acZ62YZ1XA7UORoBQBxQ9+PBoAC3z1aUQvA+CkyGhFs/uF6cEGARli8bOlZo0bHSRccd0KN3zVaRuNdb98R1lYgMH3rr3HHAaBYZ+NntpKjcvXPO01lyLO/PACsbvQCAODV9/SZzwrh29MKW5R2504F0AiLB/ZBl3Xnz/83sXqxVQ47pbOvmdAo9hCsSgHGo29fA11M6a8atl8TCjQzJfyeYFHv7CkAGNdoQrtlr3PtLwcAl+q9NGTWnPHo7ELesA4i1M7mPRokWDzMXWo4eNhnhoNOSYLlNDTe9fYQLPd6xqOXDa+gfnoG29E7d6lO6SsCn8+xqJdcv9sjwG2xz66BBT5O2V8WAB53M3WwrsaHRZU3qh6AeIo5ykHy1PTj7x20dyM5jjoNEqyMpE9i3a3W93JO86y0u9vMNomYdN08r96ITeWnpaHoeCBlYdWHp7Z91SRHlgeR6rSpVBYY3bEIC04/Tz+OfaLcjhw0ftdoGY13vV0EK30SC6krOxkjEw+MvTfHakfC+A4vACDU8Nw3o0Hcl82e4IsgACEtX3b46WBIwusgddrkURBGh3fCguPmH3I75pwav2u0jMa73i6Cxe0RumJyzlGXrXaIeFRzF/CgUYH6058C8NpQBIcrr8paGgBiB4ieRxZeoBEWJ+YRMPJnc8w5NX7XEE7DLoLlU4MrNXVqoRFX/7KK3v6ibfFqJW+mnRhX7L2jQK59+RDRp4T+ZeCZQ6o2ygM0wuLE/LG8koPOSYLlNDTe9XYRLPNnQnMi59Vo5GWd+OBiGgCkrG/U9haK78kB3Dfk8G86rxQaYWUk1Xxb28oOOqnG7xoto/Gut49gNeDNuSQQRG9XpZ9Z+V3pLurGZ5X/qRJ4LwQ0wuLiQbzZBxphZXo03vX2Eax6yswmf909vvp/ps0JE4HnXQ8AL9tEidWM5zV5yXCQ+gY0wuLC4kUtjbAyPRrvevsIVnAFkQI6H4uP3a+kXO4FAJt6pTTYZHxqzAfWfnMc8MW5D0TMRf/Ol3PWuHXF61QAT8j/JwPnzY49SznopPR3IJSh+r6EehpeEc6vt7pcdPqnqV8ClVa3GJEMbPtyRqs5w/XJDaD7e39boErrTQs+FjQXuXuc8TCi9iefmuVcjgUe7PgEuAcAic8LgrDkjNlxYTt9HTLg4J/55NdPXz6Li0iLBDz83XPlzZe/sH1+qcWJfxMak5wcAwBBOgQGBQV5OrYBGh9h2ekb2mBu+nHzTqMz5B8316tv9EH8PsrajwFzetYedvVPAMjZB6hRAwAmnpk0UCiwFjyumg5/vfNd/6D0nDs64J+rnwD6N48PSLCsYGfNPpRw2FkddaLE69evXbv+NMOIzrdcpVotbVg4If+Kn9y6cev26xcZZzf8gvLmL1Qwf8GSjvGBI8Hiwvw1YfKo+79lKGCmVz2MAdj7PJkApH63G3MLTEyC3wrT9Hvtu8tiswA4U4vndIEhUcb1i6sQscPM2et2JeBkVgCnAAAPZO/zmtm5E272obijzuqQuybmxNEjZxK482LPnl2E4u0HVHdEQ5LPHztynPfNUUzMM/2PRnDZcmXKVclr58aQYHGRv+hD0/Ed/LjhOX/R6kt1xsMvT24F9t4qgwn9t6R2NovLnm0MAODHrTw2fLwiDIJ19wGw20yw7tQDLnaEaYRlr37ULEfMP2QiwbqxddsZsR2W7v/2W4WhH3lLsqeY2B0bdkRLKhl+4gSAQrXr1KphxzaJdH3ErMOxuXIXzJs/f97cznpsFsJekxYN0wXr1d2Ss3ryFsyz2fRWELolVZ6CbS0DFBjJVfZASE4eK4HGvr0I4HB6OnsSiCdheYBLeskkwbLGYj/tTCJY7NimrfelFb326dQvh3pJK6ukJfvm74iXV+XJk3Xwb/9eWx951aQ3STA3pN699A9B2YKzBWcLDvTNEpQlq3+WAG8fqzhzTsBegtVgGQB4frA4FThS8r2We3nKZdlkvitYtoVtGQ6M4zMasHkIog50dM+YM9do5RqAJxFBxnRdyeJ4gmrAv/rPJFhWJFrs4FjMUae1p2DdX75czp/5+agFi2rJKC+DmOW/31RUMXr1at8PJuS3T6sE+dZMrxARwVnG2wcI0qV/1gWZ5+pzcjfo7wu7wOyDPvyxH1vnDvRg7DrP6NJ9tVW9D4HCvEYrVGXsDmo+FTjvQAA4lv553BO2AY9YavnOHfwA5LLT5TqCG4J/x6vKjG6yMPJW5SZn5WttTnt1UtyiBjrIxf2rVDs0JWFGdpvuzMBNNpycf1hXXKhaYoCMBgpT+I5d/sD2Eiymfx33hP0K+Ccw9h7nRbktsagTu/aHoYBbMp/NdjjCUvOjoMDN2RwAvv576t70pHm5GIuKZSysIoBIe12v/bGLYFmsSfBRu8m8gpXdPl30ZLxCjegco3ZTUpcXsfWWz/JA+en5BauYULUrMponRrU0e/yJ7SZYHwAAlrK01sBOxi5x/e7p5llUOW6YoQrjs/kVujP2LRB0iPe0xmXXugOmpIkDDAfLAZyx1/XaH3sIluUAq5giGwLwClY2e3TQsfeUT3BUj1C3LQ8aqXDL/6H8/PyCVVSo2m4VWm3iqD3+yHZ7EaAPhLwZusU5sAWo3ImjTP7u5p9iuxoiZ8Xp/2FLALyYZlaiCrY8xsdZENH2MHgw/qFY+mRyiHHGvxAAZXMKmZX9fS0+5nPYie0wh3WwSYN1Yq8F+TnfSebcuPDlLah8xHYruGG7CY62CWWq6sR61B7Nt5tgNQcA7IxCvvn4NxL4hqPMs0q7zD5tNW5qY3hps3gqgEM/JqeXqIaUaSgwGIjveAbcJBkP0mP9+rU0HLxGJhasZPlVngxrGWeRYG8XoHRUF6x9jZodtsnAERXDr0V1GSrNkUEEx39ZS6ppzC4rd+0mWPnKAkDCRqBbp+iFQI3WHIVetRuRLiymMCdZAIT/Ovh/OQA8iDbzxC5eGIueYUIWILotz9O26WVw+mRGd+Nb62PmJ8lsyPtyx7zYPbVp0flWuqHZEdaRBi1t/jlfv0Ct1tyts9V2I4CdBEuw6wvUVPFMyse7Athv8VjzmwDw9wfAjN0rvgCGcz0fs3l7/jHO+5q8FbIACfVvAgUAPMC9emY2FydOmVugzxLgbatjnOtITIKVvsGO8W+QuhmZeIQ1rZMfZ3pqVHRcbGRcXERcXFR0fExkXHx4XBxP9AulmxLJR1XBujleFYH4rIk6S7/39gq33QgA4FW4HbyehLt+VrMkiXbEscsyODsK1h8AcPx6eZQYO/VBMbQvwDlEvN9k0lf6CXnj77tbFmDHTcMF11li3OkmJTI7WizGovEFBy4B8Lr9Sa5wvqa0QhbJKXfLYtsTAPeT7Ocl6FQu1xhbIadHVFxcRFxcZGxcdFR8bERcfESsnO+f45wCVRSsVxMXqfNTHvv5NjXMbO+m3i1/raHtNqwR7vr62z96rNKJdB3Vbzzs5ofFWLh+xDSKMRadbxZj7Hu+JnTQu/8YH/KCGGOzAGA2Yyz1vS16c2EVsxxhIR7AEJamX7TaKIHjrMONRi9bJH+AaWl678Drdrtge2OXKVgLVqndZN63hH5qnSFltr/QFXlnC5Yx6XFYhQbtVnNVzRzFzeB/hVBApGbi1i9aFZHvy5aRQWr9jS2wn2AxvUD4P2eM/d6aMfbEne/Sit9jjLG0IvpPRRhjPwPAJnNrw4F6jDUD3C8Zpa8fh6PHL0abFt6lZ4Gss/Tp6+13wXbG/oK1S+0m8wpWVpVOcKqqwOXU+Os5Y4zF3dz3xwflpVx/Q9sbdDgrv3n34m1G/bZs7Z7D584d2/nPjwOqZRFr0AeK28EvWPmlVI89N3dgEZu+S7ohSSr9jS2xo2B9rW95b8ZYXOE4xhj/EDHfXcYYM7xIrMIYmw8AF8yt9Qfc37I/ADRj9ww/AD9kPKlpCZCFYA1PP9V39rtgO2N/wTqtdpN57151XFSjhwsMn3Iss/g9e/RbDYii0Ps2nWd804BuTaadTrQuHbd/QmnB9lRW3BAbBYsxxtiNnxWvLS02/Jwqf+GM2FGwThkaf4Ax9vNOZu2laEHpCMbYS/1ouhFjbCdg5UD6Ohuwiz13A7CZGR7t3bZnOGm0cVLuinlqAQB51/7jBqCj/S7YzthfsFRfTMErWN5qWD8pFL6r/P0M5Y+3F+uAT21sURLPZgZ5fnjOV+XSSIHVMJ4Jcs5uDr9g5ZNhJW2DrAhpOer3/nzmovX7r6q9xMsMOwpWah79ZdRIYyzie8ZYnB//tY5ljLHPAQDNGGPXkGGeY5MOGxlrAaBwhDE8YHDGb2V9Q9Zws7RnAPI/ZqwzgIL2u2A7Y3/BeqN2k3kFK4vttpO/F3phVDWcq84ukfsvW7LMRljxP06rPpNihSpFT8vJ2yDF4xR+wcory05MB2lfncK9Zh4Ksa3zpGFHwWIfGS5mHWPsjzTGWMYgM1X6fFwbAOCbyBiLKggALRljUQBKpVtK+v2zC+zPHA8YWwEAA01LyqvEWZ/0b2NW9X9NaVuALBcZY38AgEO61R7YX7ASbW+kJbyC5WWz6bBmQldS+jV3rcgewj1wTF4jrLjIOUtb7ppYvehv+WbqFyhtCr9g5ZFnKKYwxAjoufChTf0mB3sK1hbDBZVPY+zKEcbYUutLrX6HXeulP3zIGGPHPAG0ZoyxIKBeeu93ADzmM8YYiwsEgAWmJQQZBvFRpnfzs01p3wJTGWPsMgDsZRrF7oLloXqTeQXL01bLNwV9sv1u8lb8QrALvrapUZzhbGtLeT6614K7PYrftPELVm6ZlkZDEP8Ptil+blWCPQUr1vh93cYYm84Y4/DwKGaYP8+bwhhjbLUn0I0xxioB7U2GBgKA2zrGGGNWkf3cjluf1TTE2mlK6or6KYwxluQJYLoju1dN7C5Y/qo3mVewbNXGE0GCV7JcoOpYoYp1bGnUOi6LRaWN6NN+4wzYV1ZpW9QTrOEQoMES1cNciGBPwTK9FmzEGPvyJmOMd3iZZYehysmW9W4xxlgHoLPRzEx9mcCnjDF22+rFUEXrk6YZz/rIlFTT967+oCyAvg7uYdWwu2DJ/SqLwytY7rbZPRsoeCE9heqmthaomTVFeaPSynAY1El+yLxQhKu60ulrfsGSGRIulf89pmdfe70KFMCugrXQeGmnGbvblzHWhufSK12wrjosXbCWGyVKP+SymgX0yBB7Lf5DABYOcvl+YjfSGGOsG4Byju9kdbC7YBVRvcm8guVmk9nr2QSvI+ilYO3QPAJ1b0psAgd7uOz1kl4/hCsizU7p9S3gFyyZsRM38NnxHvlYeV8px65x5tsbrU8HSvScAXDvq5R/46UM/n9BgD54Q+JHA4x7NG1fAQDjLcpVnZ/hCrz/ygMATUwJqa/bYIkO0O/EfluVhfSZkay2m5CKTRupJvR+K5g/JY9gdvapApmXlTdrLlfiWOn1c+zumjHxlPT6EpG3Kip8DHd61jH3/ygky5JK2FWw8hrXHW+6D3R681Uyt8f/857VJ902fri1bu2pUCAAuJcKIKLNovQeHn0bQH1z/9MFFwZltOf1MQB0MX1O9atsGJ5UApDKF5nmncde2x5wYctiwvFXBbPLDhGpP0DAhVT5Qrqn/3EkFqwtw4L3uv4Z0k4qbg8fsnqeDXnKlew28M4sx4X2sGqSPTH9lo1ljCVUKsr/PKzrrF/8l+INAMX7dQKwk7FrFS1KFXrCGLtqtnw5lPO0r7IB+dJXBqT1Ya+HMMYYe6oDMNkZI1kVsPsjYQPVm8w/ZrMhiPpTkShzG0UtrOGvPEZxszgHWAPk2UjpbW0gUGFH8T8SyopO/SWniYZnFfeSzdhXsJ4aB3DBcYyxC7yLCQHA8/sUxizW7+T+urf1d7NSHGNsiv64RnXgFPd5V+t05l/bVyzV8DKxOoB2zuttm7C7YDVVvcn8gmXD5Pb/hK+ijngo8WT+hxkZc05WcIXU1XvTyCC5lbUFUScubvgFS0506l+5DORWfY28HOwXXgYACjQz7CIVvmoQUHXYXIGyyZMurfIBfj8VYkx5/VOGQlc+/Rv434G9AMbMwurB57iH3L0KpJj7xOSGmyGoVufzwCmmxlp0V6PU1GoBABCVqv8cm4ToFESlIiIxNjwmJjYiOvK5yOydI/fNtOGRcLNgrm6G+F/Xo+evfFkhopV5SDrIlSo3hqvH6jp3LFNOSlq2LQPpPZ8yal7GRN2Hvzp3a0L76qHJVbQGY4y9Dcp4frcW//tr2fxJRQCgUwpj7Ijw3O8BxlhEFaBNCmNsd3OZ7dkP2PQmyJkIj7CkRPyPvXt07ZyRtfiEqZXqTeb/Uypfyp8m/BsraYh0grd6PSnVueCO4b5Btp1bVvfIYGXN4R9hBUk18bY5R+0SB6RWtxN2Fqxo026KpxljbHLGHhipLzgMAPAVY4ztMaxT8JzCtV90VcYYi/5iaDhjjLHFMsXnNQAsdmQHq4ewYMlYB/jyJ+6YAm1UbzK/YNmwCkgwAqPvQykmUnkHCTWUtupPTnMKnp52WwqyQi8cfsEKlGjhFlf81Y8c7SeaATsLFjO99xjIGGORGaOteQy7xNg5g4OW+0nGGNvn/zMA9GehZmMBr3Gj9d43lq7tt2S2JyeAIY7qXHURFixZSySjxnA9N7WXY0IS/IIVr9yooNPCPGk2+BwCM/ohS2UUp7n5CixNt7DgFq6oOTYL1l4OTc8uf8CoOvaetzDtRbI2DEBAnwwFUv6qUrRODcPuOaljGIDm+x+7AfBGdrPJ0aSn3fTReSxDwwvHEzJh2qKgPPSbUbzb+M/azhGoUyNzWEJ7pXYYKs1GHb6MVKWt4t7d5KECS59ZOJCmnVbaIh6k9fzcthkD0ze73E3ltijA3l/SZgUMB/FLAGAYV5lH6X+T0/sAoOaY/ACWfH/FFwAq6N+/rGqs3z/nkZJmPAYQA+gF6+YLO1+0Bmh7IGOsH3cFdpRig2BV4c8qsVji+5QyfBmK74c7nKlK9jxxW2Lxp1HbE0tKz6eM/CRDnHzdV3vyq9wUJdhbsNwGGo/+SgNQpY5I+d8BAGWOlQVSfqh8HQBuzt5ZyaxEbiXNaArgOwCoDQD77XzRWqDGqgz6pJERVhPenNy7ckq0UYwvQ7Foc++Uc1TJiK2Y+ebBcMIIK7xtxhm5oM0/OfIHjRe7f0kHGX/z7u8BgP4ixbc/AAAUOpa+uVfqmDaXNps++nygpBX5ARyLBdAAIMECAHSYaZ1i03oZmdggWG34HEdz7JAc0rcoX4bS+4HFcCa/PSHTDgBgmHmwmUSFLeJtqWiJO3X2ZUirdLaTaD2HYHfBKtbUePQnAHQVOWHaSv2/2fZ1NqVt/UvX+fjNr2t5AKi6o5zSltyPA1A0P0iw9HzaxCrBLhtf8mCDYBX4gDu95Mlqkm0E8z06Kh1FxPMMpRbKM6NHtyh9xrvATCUWBBDt+X11Mj7edjspK1ayPbH7tP5K45nc7zPGWCOR9lQ11kv52JTmqQ8+E3/3yisbGlIlgjFD1FNNemKp+JZQz00rB4G2qjeZ/y1hpA1WnwRxWewcKscG3+ZgtRS26RWPPa97iswdM0wXVZgWq6i+wFtCsQ2L5nL4uX1pw0oqlbH/vEVXYyyQ1OkAIBKjFheNL1bc539jTEvu+h8AeJeoqGgCy8CUQABoCNAQS08Zq+ibGhlhoeCajMu086zZnF2ODb6dH5SOsPhGbEnjFJmrf3fD1M9/Xnn76v9UD6Eh3PMpI0dm+Bp4LZ7qyOlNsfbbHZOHivcLZlh/LMRv6TWnmBI9/lCrNfcAoKv9r1p9VB9hsTDLN4XNVG8y/90WbpPdC1YPf8Xmyh2I8K0mrK+wRVG8V7pM9V6VAv8IS3DDorccoZqDDzrlCnhwgHQONh4kzAZQoJZI8V3ph+N/M6pbyiejFXvIWFK8NIBDjhxMuC7ZLGPzqNTDkrBtgr/q6aXtjM+znpW+PHJnhNyBCN/5lY6w+M8/TP2QVjYhNMLimm7Pf7SJs5tsjs6WsblE6hjfzAY8DgKmfSlcOmuY2RYifw81fbParhKOiyuVz2cCONjE/petNjcFXzeE5FBg8mFJc5Gqr7pHrW8cX06orAc4LmIePH7l7e1Tqqinktr5eXzxmhyUZ0fCpWbfWVOOIXVI4A1u5sX/2nFfz4zOGaV3i2+b40gc8XBq8haNmgugu8gzYZxJ5JPW/FZ9vg4AslbLhZ1170EN2gHAFlutZA6KWryrduQIy/bfSb9KHYf0f69DKUV6hWSedMW+RvwRa8Karrf5Yh3Cnxze7TWPuZZeOUSwepl+TWeEAcXF3hNuNPz7plbv0dW2jwKQ7835Z5Nws7bSXz8LGvoD2OqAy9YCvcw/JDnwxA4Y2AuSwJOu+H4QuK9j33vvlXRD9oav57mm29HygJKBuz1xhGCl+3qG/whgkEjxrfoJw7ctLgPYvKEa8GIVPL/rjbdtN8B2vFoCeHDVZjuZgg7mcy9xis3Ix1UFS/EIq4hQ5vpyS5x9wSZ4GsLl3Y72W/3gYjjkfeUw01Pgn3eA7gHCpcPaRAKI76jXlGe3dMD3scB3OiT2UmNw3Q6gIZYB33ZmH+IVm5GPk+/fVL5HQsX3Q1XB3PBBtV3FlYa75+/UzTjdjs4bveFqOESwSrQEALxfAUlDGXz7ihQ/Unl16LlmxkUNcQx4MQsoWw1I7avCU2FbHWgSy4i5W9w7JFh8AyzlIyyx3SbOtmh9wbnXbICz5/fXuZ0xsfs6LzFjjscxHmH63WNzbc+FQ4uBcWLzpI/fz1nT8mXwb4lAewBJvZ/b3Jh8VQGco4gNAIBmZq9A3qFHQl7BUnw/VPAVK7GnxvvqvDZSn3ltONZu916t7H2GfXGMYHUsCAB7Cq33xOf3UWSAcOmAihniWISsA2oBwJtPbG9NBwCMngkBADnLph87coTlyIXWHKg/wvJoLlqErS7b77pzrxtcPxUpn4zg8Evst8K++z0oxDGC5T4CAG5ebfgdInslYoJgV7R6deXZ86VtLb86fwL63eQ2H7C5NR0BYJVDLtz1MXtnm+rA14SZboQFKcHtUv6t1O2cc688Y8+Ht+PaGybrXJeIJpMBBy0S+jgrACzAl1VwfhSKC85iDfAB8g3Y8eRbc9/CU6+RuyAA4A+bG1M9L4CjyrfMzFSY7y7kwCGWqwqW8ru0o6QHqLRNNdsckVLQflh1/Z26e7lKFQiQYsvxOEiwsvUHgBVxnos8sOBHTBJaSWHYhzzfD0/+SI9pwS4C+gVk26JgI7oOANKjSLzbmHvFOXASy1UFS/n9kK27xIK7Gzfc4swnYsuu55xuB/AgRootx+OoZdijdQAi1qLaF8B3fxWeIFDUJPhZR97e1ND4IR6oDABIsf1lS0cA+NdBV+7i5KuQfpzFcad1smDF8mXY8Bw0RnLJY13KzHPkGw5LLLqec7odAFJc9D26owSrbCsAWAB8kx9sxM9flOIvuvNueuu6HDkzOBgAAuobBSs93H/4YYXRGJv7ALh+yUGX7uJ8YDoqkk25Fbk4WbCe8GXYcD/Uri+97N0Rhb5xAe937ul2PbOc3ThuHBboZgwAnLwC3ykA+3rsn/wnTrHYvbDm36+OThv1/dlcJsEyqVRUs85QRNbmALDCUZfu2owoaTyabIsZmThZsM7wZdgy0zxdzo7iYT8V+dA5yy3Su557ut3A+X0SbDmj+Q4irQwAjGAsrTYAVG7N3yT30zwmggCYB8xqqkuxKPB0jcTGzAeAfCkSS7sI6sfD0nNP/1BYfLX6TeafqrzvxI5kLJZ3hZzCjZb19JN57+la7k6z0xUKvD9JMJa5JbxHXjXXCTNqhsNGWLoxAPBvDHSzdQAu7+UvmvoB95yoTj/mTt/x5Nf+lj+IBWb9La0x7XUAXhxy1LW7NsUv7ZkxffmVO71sNyUd5/phfR3Kl2PTu/xpUjftMcD2tq6yPFleHduJMPy7sdZtwXIXXHOW12HSGJ8bABYwxsQ9VoZxm/gVAHCD/xyhPY5Ja0xZAPjYYdeuCvYaYdkR/hHWHWc2ax7/z/Qwmwz/J+eh0ECB6bbEt+dDYIR1ljHGWNxY0bYWVBhP3q44Lliz9ygA+AvAd6Jd9ddyzuQuAIDz/PWyrysKSTQFgE0Ud9RpOHEOK2HcCP7xnW3eku0/k1/n2f8KjnvmyOvfDAD7Ks0S/RM8/cGRzZKIA6PLD/cDcOEEULmrWNHm3NsXFq8DAGuEauYTM30lDjBsxhly2HEXT1jiNMFKWVF5usDJbbwfpvVUUClqevGBDpx/nz7v3OK6LaUsa5x5zXGtkooDBSt4CADMhIQh1v4RIZzpnwHAnrc2NCK0WrU3ABrrAEAjkSAzI04SrAsTSvS/I1TAxvUobstbKKmWtKxK79tKKio62Yiag6XFmU8e5jJRvEw4cv+esZ4ANt8HKrcTKzqv2Kdcf8DuTQAk2bIMMCz19lAAuUoCwEZ6JnQWjr8TYo/N7Ja7+lSRFVm23g9eWzsqqpe2psJHTxTVtCfHFe0Da1ccKVgFewNInQPgI9GyMX+UbX88w7fa7Z9CAKZZvkRc3XiSaVorTMxuXjdsPgdDvLU3/znw6glzHCpYiWf+/LBiYMPPN70RLWrzil+fjWIRdXlIWVRq9GtH9ooU/ud6IurIGf4rOgBZXzKWlEugRd6VjNvj5P30urWJZ60BjLdImg2g9IwYxhhjMwclibShLPAJY2wqAKCDI6/eVjLVW8JrjmrCy3Wja8iI6/Sl7WdMm6k4LovvV+EqXbZa69hb2stRTCkOFSzWBQBGM8YE3qYMiGQX0z812WltY58ndH8zxhhL3LeQMcb06xJzLEpjjD106yfSw2OBsoyx3QAA92cOvXzbyFSCddURp7+z+MOSkMdXapz3SF7FApHtT3XcmVULvDHfEX8oGThWsM4BgPdzxi7x91CLLfd+N/9ca5uVBE0B0Hnp2rm9guARyhh731CwcwxjrCs+E27CMcAtnrG3eh+/yQ69fNvIVIJ12d6nfrNqUAEF9+c3qpz8lcI1YwBQ9bgaLVBNsPwf2vsvJQ/HChZrC+gfySrK6LPqmy0kK9UstuNixpgp/H+9WMaOA9MEW5BWEnjOGDvpAwCFkx17/baQqQTrkj1Pm7R/fDWFk7Pfq9SEf4IUS4RuWJTt51cvtFlz13oodLBgHQeALE8Zmyar06puNzfyIn0FRDvGotNnDPoyxupBt1SwCb8CjxhjbJMbAKxy7PXbQqYSrIt2O2f02j7KxQKT1GrG007KG1F4j82nVzEW4592+1MpwcGCxZoDwHDGQrLK67WGR82MpLuOul1k68xKbWNsI+D5n1ALQv2gn6AfBgA1HXz9NpCpBOuCfU4YsrC9bTtT/aheW7Yo3zNZNzbRxpOrKFh+D+zzt1KGowXrIAB4PWZspNx+a2/2FNHGlNo4vI5ZmUqMpZYCvAUVa3pu/b/6jeKOOLgDlJOpBOu8Hc4Wt7qDzfu8/Kxie2LHK4+IWPuhbeeWIVjuBUV282rkSmFNHC1YrAEADGbsvuzvlltv07Lnez48ZY4z9hcArw0CLUjST6zG6qMTdHZ4lyslUwnWObVPlXpgUCBs5xdVG/Wgl4LV0HpynrTpzFIFS9diSyyL/UnY/UxNFbcVhwvWfgBwu6BgiAW4vW+UrOE8JQYzFpcLgIdQcKdUxhjbbogXr7Pr9K+aZCrBOqvuid7OKAFVmK5yD5yoq7QlWTfbcl6JglX/jL64sEe7p8p/LVtwuGCxJgDQmLHXSrblcOtzkzHG2HWeX66gJMYmAoDXPsFGRKXveNzFGd2uhEwlWGfUPM3FjyTNiAY1/WzpqVdv35wYx//Vm6l2F6RtrCClbVwysc2G00oSrLwrTW8Ahf0wSseo3S2KcbxgHQUArGdsuqI/o1vH3WmMMb5QabsZe+YBAIFXBNqQZLZXjM4e0yn2IFMJ1in1TrKnMUTxrDV6jVmQ06u8EUdnq98Jqf/K9V414L1f+UmlCFbfsPTyT/wEi7pO6DjHCxZrDQBF41lyVQmdykX+YX9N5nOzGcIY079QLhjK34Qfzat0dFrnyyNTCZZtMzRm/FcHInjU/+6QdSi63/kK/26Pbkj+u7iiL7rfdcWnFBesPJssKoj4Gdn0fKomThCs0zoA+Jmxc3bYCzswjjFDaNduvC1IsBif6U44sf9lkKkES6U+315d7LYcupXLDZN3lfFc+3REyqoqSr7N5aKVnlBMsNxGhltWSCovWD7nS/t0jGycIFj6EZD/C/0imwyU+FBi1FBuljMWYXjnsZivAUctq9R1LV9ePjKVYKmy/uRmG8EuQaFxJ/g2UsjPU+Uve3VF2o5GkE9fpacTEaxsOzLUOCz8QrOVi2xJ4QzBuqgDgA8YS23F0TMN01JmCT9QczLsyt0NtQCUT2XM8MYoN9/v029WdaVutuNcMpVgSYy9L8TbMYKeMQGDDgrcY3wbxiywY28c7yjfyWGLwnMJC1a+2xxVBgi35Cc79owMnCFYrDcA6A4z9ioPR8+MTmMXc0AuNxhjSW0BzGDMOLrlc1ueOnhcW/PH0WIJclrvLDKVYB212fYmoRBFKPOH8II8Pi/0RXbtj6v95c6CFI1TdiZBwQq+xVXldbBgSzwO27VrpOIUwbrnBQBlExjbwzV53uktO8A3qd552hedS3NllrvAGHvgBri3MO3KU4DnWS+BMfZ0oFnlaXJa7ywylWDZusAgYqBQZ9TbKfaUz6d2S+zcIw8/kbkm7Xtl5xEULB636j+FW5L/jZ37RhJOESz2CQD9QtPvuLom90rG9308xhhjoRs+KZchx63jhjhWxjLttFAjVqS7y/s9dUo3yCNTCZaNP9cHCwp0Re1d4gay89RdZvc+CZkoa/fCwAhFZxESLD7Pw1QRJ9c2rjCN5RzBeu0PAN63GUvj3qSwNd/+EPWMq0If/9k2wzJX7+ZWm+YsFGzF2fQ4az2c0g3yyFSCddAmu78LPFnlWizlHUoQT+0VDuiV2LlyvByULRYSECwdb7TX6yJrH11hiY5zBItNAgA0TWMspjJn3/hwPPZlW/d7S/eu6RGsYjZ/lAeCiPyxr2YzldzJXJ5MJVgHbLCaNFSgHz4Ml2TDn6e6Y8INpaytKUmsACCfosANAoJVh7/WZOGmeLhApAAnCVZ0bgDAP4yxx7ml/ulyJDP24JP3zN/9pZ6e2FBgrflagSYcYYztNsliiXjndIQMMpVg2eDEHdOMvxeC10o0wtcyh70w3id5keF/SswLCNZU/lpJlYWbku+Fo7qHFycJFpurl6AQxtgxyUE4tjHG2JtNVtoSxXtb+ApME573jGeMjTeVVWH3ATuTqQRrn2KbsU34O6HUPalW+L5z6x3XOVsrSfvWD1BiXECwhLr+rMhbzHq2xumyGUdu82XOkNIAEPoJgPoL+ArterjYOLmu8wPwDwDk7GI5dxU1Oo6v/tcC05urkp8A+N60zGvGOSf1xLuJ4m2+4jsf4s2rd0Ly5FAqT7oD74eOF1dKWmS4JVHd8wrFtajxmXDdE6Pt3CniOEspt+lPv4Exxr7kaVvB8yx1pV50xrOIXd9wTPpdGM3rPaIbJ3T+ivqNW9YCRTcHAUBFp/94iJCpRlhKgwCnCYQVqB4p3Q6fC6dSR01lJC+Q8sZQyXyfwAgrXKhenJiGLpTYAHvhNMFiLQEAuUMYY6ldeHrH6+sY9rw6AARxvdqInV+Nv2drHRQ8/QS8YoyxtPIYwbboAPX2H7AXmUqwdiu0OJW/B4rL8BPi3fLblpAuSggdJO79rmRrJwHBEg4Vc1hkjJlFxTgbSnCeYF3Rr/h7nzHGonkn+/LPiomqCQB5Mgbau8zrjJO39Q9XRE4fMUr/72/4jbFRAOCpehRMdclUgiXBVYqLw/xzLJ5yQmzxPmXtkGFEHQ6XFROstgqsKh1hCW4Zqr8jnbsM2nmCxQwvpzcyxtg9/vC22b+/kQcAAg9ZGxjGUbrU5PP3H8lZaRPivoexhKoAUCZWRj3Hk6kES5kwROXn74Af5BjinfZUKKS2kPiDyEx3NgVGBQRLZCAaLxy2Aajn1BfqThSs13qRyhPKGGPrBUbGvvpNDL2t5xfOc94PdW7La0ada4yx234AMNJ5nSGBTCVY2xXZG89//QVkLbqL5jOz1xnddEJkf50w+SYFBOu5SNXzYrst9HZmdBNnvSUEkOsrAMCrUQDQfZQx2X+4tWNV7FUAQEL35Zbp1Y5zzRCeqrlRVjMaBQEo9Y8bgD93Oa833jEUvSV8MJs/71sfyWbA/5LQkW8J06l7voFg/kNVz5Yskl/tO5ECq7+3f5fw4kTBwmj9C9aV6wFgmtH3N7ruVR4HlZQPVlomVLnyI0cgmqge4+XcDuWDAaD7bB3APnzlxO4QQ7EngCui6GK+TeDN8u0jyxKvYLnLsaIa2fd1F8pWV7CSxAqMFwvi+uNyMRP2w5mClWWO/t/hrwB4LTaORAfdONaaqzSQNiTEMs3764dfZdxQgP3yIe9boIyU1j+3fPq7O/CqT6r0io4mwXYTroMSwQpdz5/XRV4INdcaYQFZVnUVyH2p6rnERljwWOYrXIANOeKITuHEmYKFdnqnmtAhAFDhc0NqSu99G6pkLJzlrx1/zTH/WnbJ4+aXrdQ8ru/e0h7S727j/MHI7dmBg5Oc2R/CxNluwnVQIljLBMYGTeWZ4v1BUzbCerJsxsZIm/rD898a/JmxNpm2RlSwUFIkwDsSu91VtUlycOL8GWMPDBMPfzPGWIQp5IfbtMccbw114y13oP1L6MvVOFxqG9JnEEPeB9yUejTaH+EJNo1NuivZ1EBov6zL8kw95bOjaHOMZVkA+E+zLfrKPf7O+ka+NYFJdwmbDKa1F5ONomJT9/bCqSMsFDX4uI99CCDQ5AGSNm7y2IyF2dQ2oeafh24VCJF4uNFziW1Ifz2ZY1klpPV74dQeEeBdH2G9uiaQKXMfVVXnsB58lAggetxgm2YZi3/Lm+XoERZ0/+QXKfGwTbiqjZKMcwULXxYDAER/mAZgcPr71L/XcpXeV91iwV+7a+34LV+td0l2azzm6vDmfRnzXw5F3a+tk0mTX+WEQJ6XzDieqs5h/WF4VP1ngYLK6YziDVsiQWJkIMVajuViHXG1o3N+QJ0sWN6z9f8eng0gt9meFNxOR08a/m3+Md/2v/kHWU/qLZT9i9egP3BE7K2us8hUgqVgMCIkWL6SrehRdYS1xXjwxQNbuiTrB3w5/jKsGBD4QZAkf02/EitxvJe6OioRJwsWOup3PcXXNwE0ES2eMGSoxczr4Jvv85aN/7jlDVGDVkwLAn7Z6eQ+4SHEdhOug4IR1k2BPLkBDdQUrLcmmYoZblOf8H6VFWwiJdAhom4NAIDvG4iV+M+2R2CFOFuw8If+r5EwIAXoUky4rHsWYEEzC1+p3Ct38VfaX7HnHkl+CgnGB/Lck4G0/ur6vajFU9tNuA4KQqa8FchLkCmAvN8KBUJqNlm6Z40tfVKJL3SDghGWwKS7tIGRx7/BYkWWj3CCYjldsAoawrKe+xkocWWUYHtq3h3uheM1L1gktu7AXyFtXes87Sb8MveeSCMOFt1vOBpeFQjrEuPsXuHiibMboCbiW6lnQEiw0t7Is8UrWAqeuyPMjse+lV/fhK4KT4b8Te+EnPYkPskVWiRa5K+RTlAsJ72dTCfFsNu453nGGDsstNtc4Bv2eJgX/CxWqEqZN/D6QniXulfuWYyL2064AejhintBCw8/NebWoGA/A8F9CE/Ls3Wez46CsDdbzOv3tKW7hvE06rx8UwJvVCWHrR8pfmONcPiN4vQRFtzn6+cNkgckAGh0qhx/0cgukYXm3RmGjuZLdPwkRFhO+rXmVaH83G0S+xmEr+6HANb/5OxeyUjcI2e3QD78z+MKnEe8hDKvSbUi0rDb8ttl4TG6dpl8AyZ4HsJ0peWZAYBQ/izJg9uZtUWL/Pmpo8dYzhcsVP9U/+/17wCg6HGBlUwnKh9F4XnP5/z5OD0t529SNgC/XXuLUPYYhPc3dP2UbAC+3+rsXsnANeHpFQWTL3YnhX+mSuwhnQPBN4EyA1zzCtYl+e2y7PmRV+VbMMIjyQXlvgMF8Iw/S7JLvtda8WfRuY5WLBcQLEw2BOKbcQwAgv4rw1/0cdPPwxEw/Jh5PI6Pp0tRrPge/wrktqiDE4f1hzmnA0jrf1OCTYdyQjjbFZ0eBKYCL8u3Jnjb7pFni3eKZ4d8LzzLF4sxXcLkX5oBnr9hFQWmBNymIyQbKbRSXB7mDnSsd4MrCJbfX/p/0z6IBYDsuwRmK1Jnlpxt/V7283VS3AZTBm4TyF32WSNjfJIPmwCI6uwkT15ejglnu1pzASCKP+vlY+lmDGQTyrwvb2DDO/H5arvsdlndQg+6K16lzvMc11KBKQHBkvG2ueVE8TLLuznWg9TRk2acDDA0Zrj+4xbhJhf6zTpY25lcotcJwFfi5OVtbwBokyKttINIChK+uNXObiAHBwXaO0+2tY8Fr/8TWbZa89opLjvs7CprE52S5ZowUJ+7SXcUmBJYDN5UhplUgbUkJhqEK7xeJbiGYIUZdnDWGV7SDBbpotxTrTZIuVdEQseieLS05vwAABjj7F6xYJ/ItbnivopCS1Xk3DZ6fhG8fv/XMkwJjbV7yN09KeMqst5JiroridvfqqgCU6kB/BeYU46hsKIS7qtKDtxf1TUEixmDhBYIZ4wx9iZArI+Cv7V8j39L0sTkYGmtSdS/qZQ/CLAjH4lcWmVnN5CDUQLt1d2Sa22DcAcMlW7pvKBPZEPzyA8pD/fNH9e99acX+a1xROnqICtesxGeIFPjFJgSXOJxX46l894Qp4CECBAq4SKCxXoZLr2f/uNk8U7y+9xi+46JEvoVuhPSWnPUDQA8XCjUTJTo8gwX3POnnFB7+8i19kz4+t0k7x+xKUjEUqsZ+6/cObFt7tgOpY0v7tyX8prjishd/5WC7hrK3RrJu1mb8ZfQ9cnbWlCSn4bPCgWNVISrCNYb47KEjYwxxqJEh1gAfMaGpxswvdcuHP90w0f60Fq1dlo/gtcWbkWKMaSR/rsTdMPZ3WJilmhvdHZ2EzMgPK/udlSuPZFtnXNKG7O9krATIAdZn/EZ5JxxVTDmeMP9RNhGSdc3F7qUdvJsfSGpfz510F46riJYbLXhwguFjWJM+GkinRzzTZ626S/RBiczlrTzQ19gArtkXeOgYCNuG2+i8LwAgGKu4j8el0e8M9Y5u5HWiAyTC8vdDOZDkQ4ocFPcRuj3gVDGFD6T3BNi3tPlxvPj8XPfqqDnXwuu4fZ4JMtYSltJ/VPxmiyrSnEZwTI9FP7S+xRj7LrEr1HLJ4bqZuPpps8ZY+zt9CLIn2GPte6Cbbg+y3i0WV+8gZwtDu3INxK6wtfJe/JakyAmsrWj5BncJNYDgRtFLJwdqsAH00B7PqN7eSo0kvd2bwe3h1E9JYtfRBZqyHujysKledr7/KLsXYM8XEewwvLprzvo2lLGGBPbztH0JV2Qyhhj4eZeOtn0y6VSNtTKUNxXUIFup+9MOERfvr9LrCq8KLZVnP7a1ji7nRZMFW1w5QeyDCZmE7XYQ2BC+eL3FSV+pzgpx2eX10Euy3jhXeEtuMR9cTqZiyQZY4yFBQlfiofMxYm3ROwZqXBEQWNl4jqCxXYa5hb07gQTJX+Tap1hjLHbFj8DXR4zxhhLW5/Ba/6wUBPSxpsOYwx7Hk52drcwxkKLSesJdFSwTNZeXJGwxjNovqzfg6HiFj36HOB6FAvZOlbK+3kh8vK16oJAnZlSvbqO8qyC6auk60XnU4rJ8QFhjO2QGCZM1+2qkvbKwYUEixnCn3ndY0xwubk1bkNeMMbC25in+U7Xe+8l/50PwLq/TBOtywWb8Dj98LR+VKNz/rAlsr70vqg210Wm3R5JE4iqm2VI1mVJ0+V5+y88mz60Sby947cPy0ipJwLvCEtwEVeuSVJ2a0iawjOEzv1SQm1rVop3UzmZzqjTpfaSW6/jNn5xRHAlwTIOavQhOsrK+DL5fhXOWMpnFmnFf9O7iUZ8rMOCdFfUJZKbY3BU9FEyKFeT5zVl9ATgVmXstkjbz2ojFwtLbW+JqU8kW+0q1ShylG/UomXz6mUKqrYz6jK+Rj0SrufZY6OIV1bqOj7/DzcF0W7Ydil7YPt9J2+QNUh6R1WcpcQRQyquJFjspAcAQHecMca+lvV1yvbTW8Z+tUwL/lL/KnpjgGeffsZE0dfNEaX36g/Suulr5HksVsWubJa07MgS99I9p+xw1kZMjLHwCZIm3Qzoanx/UJqn5XlFHgmqwO+X+lq0rl/PhfyzdQ9/KsVbUcHyhdj/Sewjr1YzZXjtJDWXZlVPmaF/Hr79WvYiJym4lGAxw05H1VOZmWOVRPzG3GOfW6V59rvAGGMvp5mGay1F2/ACPgZX5yhDrUoy32apSNq+FsruLwDIUbf/DyvPvHV4m48NkrmHDQCvir1+WHdD9DWT2JotuzGUf2WptDgZhbpN3nrT6o1PwpWlnwo9rbaV+9ot5cRIWV4b+dpNWHNT2knCy8kxbMQ9Z5lGQxeGq/jt0jkjkDwvKY31QVQWfgSworIX9JcruDtDWtPP2rkBOLnryOl45Oo4XTRSNfK/KHdWf8fdqhUNAGi/RbUHCxmwR9cO/KcgbpQ12UuVb95OiiOuKtxfvuK+4sqexWq26ibkeRBe7pVkY0LkSYiQU9xrymcCuX6SQ/u45c2dM7ufLgjhcXFR0c9eCN98DXfJEv60g8t2hMqpYMC9QJGiRYqVLSdyskd1xIeSPATtkTerIYiK4qcCD4MAALnCGWOjRVqe++yL06u/aOwldoWl/zI8b0RL81R8P338v03/jIrRju6HyCX9ykuZipD8lZli27bEUrnc2eaHtqDfhKbhN6rwUBg06mJa3BcyDJUWfvkq9R2uTKpFyOn5xIXFbTudZ8Pfhac+T8sfNxupod43zMUEixm2HRnDGDsj1g0e7VbFMRZq/QZjzYnpdSy/jTm+kfOy5T8AfQwRQozxBv50bC/8ptQdm5/eDmh2yjceajR1lNA5JthqveIi/dzKetFfOiMfibhT1VP9jwUADUPldP0ZqX6LQuRcK3iOjcqD591V7TvmaoJlmKXwvM4YqyHeEQGDJn5cwSqtfgJjdz61fAbKMvCi5BakFkH6EvmJ+voeSl7XKGaSWl96c9bbvdmpPVRqqtAqw9QONplussM0ftso7cVAqZ1i1y393aUM+slaY7FWgtObBHTCTj8zFBuWvPGFKC4nWDH6WcjmjDNuhwU1/jEOxrMM6VQyPb1RGGMsck4Ry9JNN0t9KpoNwM3otGsIGxdgd4+4dEIl//bLobvtDRNhjlpNHS10luhGiu269ThjbulfCU+Fvj+LC8f/1P9juU2U5VF7Rs5LWSGChN/sfarU7hzVvmQuJ1jsov7HYiljaSJj7fffmCJ7jI1kTxdUM34qsyyUMZY4y8p7uMRv0l73JZYCUMrwUJhicIgopMSFTxky45NLpLrd223TyhdzhMMJxDRTZtVnmPWDybeidXpI8RHbIOHk8ihyUF7PN1btzMIxelJ7KTT7tWpfMtcTLDYXAJDjDWO3pW95G/jVa8ammD66N/71JmMRY61+QwM/fyilBdsAYIHxj2QInVfTLm4lXOxU7etnTmO7tzu7Wk1tK3ye2G4KbGb7NqOnZJrIM2ytfZKuO0FJ0HUhBsv0o4lQzz3tH+EzJSr0shmu2pfMBQWLvQ9AH8pvg4yhrs+g9y3vmHx9/9jb07qUe49jElowBEAB47NAmmFDybZyY+cq5byUy5XNWLu3u5BaTR0tcqK0H+RO/xadwzlxHiv0ur2q5MAuqQtLSW6JOJX3yu34W+qdXGxrgKjqisxm5kdCxqL101i7GGPbxN7tewbnlvu2tdY60cmshDoA/jV+SjM44fR2jGsAS1IeA4Uf39t2b7ey7zIHB0VPtVuWONZfz+f2+YLXF6DCBjmzSGm7OqjyghQotFT+t+yhWh0PHBI71+sSCqx6S199JYYrCha75gsARWMYY7eaCnVE+1NJjLG4qxu/bpoeQriCaLC7kvPFwiM+L2D+DJWmH/OpOLAVRnxu0z84OFjW1Hy2/+zfbLEAe1LpJuFckcOkDrIChwmtxnrKHeupwRrZsvF2Ze8gmy+9zB9KAndGqfZI6BUuerL7EmJJWjNdte+Yi3m6G1k+AAA+/xUA2zZvT5Yk7p16c7xM/1lLuXps6yH9Lpj+ev90uGeN5jtB7tHDgwRbcK1hhO5pfuOn+Eb6hUJfisd4UoOYVifTP/jlzJkje44c2f18Avyy+gW4w8/iOTkxLiWaRSAiLSI6JjYyKiYm+m34W+vNfQsM+CSv/Zu9iy80ZZasAe7+Hr5ePt5Zsnr5ephmJpNikRiXFhkdFxseG2bcwdRj6K9S9j3A1W8k7M7t1axPd+EReHi/HdZJgf2GVYASko8fOnJa+S59bu0/aalMekooX1xgyZAF4mUuNY4SL2RO0FQJcYGk4pqChaELALgf0L/Bfpk94es/uEp5RVp+tcO2bNhntstq71XPtm84aLgRelQulBgdde2Ccfgc8OlYwUnik20j16XPyT6rqV8S8pVILEeVSFn236O07PkLFSxYuKCSRTVpb8Pfhr+NjAqP9vHwzFWgmuTQCTbBvvrNcLd6BGcLDg4ONv5f0kN7xJuw0NAYXaGG4ounDJyduzZeKD+geZdOQeKtXjI+xOyje8O+79vySJ507sixiy/k13Nv2K1rAaUn/XsIb5YuW6C/j19A1qxBPj7BPlkDfb0QpAMAbx8AiEtMjIsLfxse/jYsNTJf3YFS/LlOdJK4ubUuKCAgsGyDrtLfnUmw6ZqCldDgPIBCl4OMCZ/M5Sr2cwa/5/Clf902Hrst7QeEzJ/7CgAWDNY/Q7zduczgNuD/yWc8UdMAAJf7f2K2ded/HfX/fv2js7vGlYl/+DoVQTmyq/kNFSJ89dZD3PssB9Zo2LKWxGmluH9WnUwFAPeSDRq3VeNdZ8jli5cv35K+633BBk07KwjKkc7uWQdNv9Qe2bJlC85mQoXLsebhqP84Ur38AwMD/P39gwP8/QMCgvwD/EV3elKAiwoWntQIAfD+SuPnxIp3OUr5HM040cu2/XjWeHETv3YHElf9dA9AgR5tGuh/Os8ONuxr7jfic8lfk16G/TJJsVyL2CPnzl59npyeEFS0ZKly1UrJe7aKvRaSGJi3hDr+4gYS7jx48ODB/UdJgqUKlC5Xp2FB28+WfO/VWz/3QPds2Ryxzv3ayiN33wB++UuWyhXo7+8fEOzvL+lB3mZcVbBwsFUKgOWmOFa723CVynmEKzzHzX37D+mncRouLQogae6PbwHAa9z3HgAQ0/GQoaTf2C8k/n3njDEcjJ7lvKBMBDepr15GJMXqgpAtZy5VRUcF0p69CA0LfRMSFpoYl5gahegUL18EIzBPzlx5c5cu7ajBqB2I1zlGoyxwWcHSK0TgpSLGzz04HYrz/VeVs3bS9n92JgPwnz0IAN5+tYABQOXvu+gAIOr61cunrqQAyPHVCClf8U7pmzl9uNAZwWYIgnBlwcKA5QAaHDKqw/1ynGNrv1V8q2HvjNkJAJ2XBAPArr5vAQAl+/Y0RvOLPbl93XOg8KR+4gr0ntnCxu7/utqvOEG8I7iwYMU3uADgC1P0mNG/cRZzH9CgdllOpxzWdxVgelV77/eLl/XvY/M3rVi2bFF3AEhqdRhAhVmiKw4uVTPrqMYb7TGVSRCEGC4sWHhcIxTAv30MH0NK8Pp/BIwdz/U4PeUrAMD/fjBkstubVl8x5GXJ7+0TFPPIEEWx6wyxTV4+WGr2oeT2kiAIwuG4smBhaxcG+BwzRmH4ZTx/0eJj+gVZJSUvGpOoP8ozqGdlY+r+kbe56nt/MV7Y+ya0jN75JOunh04D2Taqt0CeIAipuLRgYeSfAAqdNfgeJFUR2gLOp0XjBmVMkTofX96z+blZbrXRrXPrj8LzJnLWLzC9l+DrvyX6nY72tnhRMA3wmv+BszuHIN49XFuw4mteB9B4r2ExyukGYr54uQoE+bnFJL1+xrEvQP5q1QsGBUTsWMJXufNSocjErNtmAKVvAWVuA8CEn8i9gSAcjGsLFq7XjgUwwujmbpiUshclNwqtIQuv/hDwnFkmfNwjAECPZWpuE0EQhDguLlhY/T4ATDHMXrEhi+x6Nt+F7wvknm1o+TBZfa2d9kshCIIb94nOboEwFSJPAThQuAoAQNcu6rRiU74V4xJFiiRviBZYL5+/xCYLeX+5rEwZEAThOFxdsND8yGMA2yvrpcGtTYWLb7kLlhiY46ngFFeR0992zxf1Uvh0J2935F8yW8HfMtx6wtrIZuT1ThCOw9UfCYGwOvcAeG1sb/icfOhwCPJc2W0dWcSj/7gCcydbTbaX/PHuT6aC1TcXAB4v/Ft4B9tmmwRWF46z3gSxzhrVAgMTBCGG6wsWbtcNB+C9ubVZ2oh5XCVr9szbzzIlz+Q6W74xfcr2W18AieunXYEAVXYKxFScYB3CL/vS9iAIwjFoQLCwv20yAO81nUwpL/PxXQ6Er6fjp009gLS/P4sVKFTmoIBiTZpoOMjrpw94oxv3o0rhvAmCEEELgoV/+zMAHov7GxOicolNn/OSvUuLfLkSfxTcpLXswdz8mfNGpQBAreMeu7vqnzZrLi0LgiAcgCYEC7M+AwDdjLHGhC+n2fV85Q4IKNaenpEAss7qnt24VsjnxzFy950iCEIB2hAsjP8FADDsd8PTV0qb/XY9X6VDApHFb/TQLxHyzfHYmNTwH3LJIgj7oxHBYqP0u1C0XBukT4hod1K5NWuC0jLEgai/R2DnhNgRy6yT/KYPpZU6BGFvNCJYYJ/ql+cUX2uI3RDbWa0xlufupoh/dv7M2fPmnhLtNgvtOv3PaKPE6QIj9AetFine9IQgCGloRbDAPvkTAOA9a5g+IbGnhH3ppFDI+GCXfPHkqRNPjMl9lwsNmZ4MMfiQtp1fwhAJNWjaRzTIIgi7ohnBMikWus3Th5tJ/mClnPoFRj8/ej79o69PqLELnpttMhq2fuYdw+GYWYLNWTQuHACQ861pl9f68yo6u5cIIlOjnbdbuj+G6w82VtBvR+G5rKec+vH9Z517MNHoYTUvJuSS4RGOpYdePtwx9zCjXmH2FMHmfHT7IzcACEnflfp49S+V7/tLEIQoLr+WMB1du9f6DePj1sa2AgC3LhfvSK8ef/k9j+Amo0o9eQkACUXz5Xt7VJ9zsW+Q/mBJ99vmA84D+asJGfTt1O7GU8uktOMrS5Rydj8RROZFO4+EANh4o/vVd5MAAHE1b4hWqtoqV/zFrckAWm7xAYDDE04CgHf12EuGIu0NG9m222lZ1X1dVxHj276+ap3UbQ5NvhOEndDQCAvQtQw0THUf9q0PAJ4NlqSKVRr6Q71GPbPsA/Bgo285d6DIoIqXwoCUp6+MRe7mrQEACFpjKd9sS6XSwsZLDy11O8Qy6ebfnjUohANB2AVNCRZQt8S2NADAvlw1ASBP3fq1vF8mC1U5vDYup+7LlwAQumVxQgl/6MoNCzpqEYlmf6fcAFCq1oEYi7op6wtUhSC6SsOqPnhhkZS0d3UhipNFEPZAU4+EALC7h15T3JYMMCZFrZpzU7hS1vS5cI+2HZqWBK61sgiMFTi3LwAgdt7cR5ZVB8zIIdqmE/PWJ1imNJ9ZydkdRRCZEM0JFs500D+Dua/uYUpLXfLdSxkm8jcoW3jjNsu0llOqAwDY0W17r6aZkoN6jKgqwWLoP/PvWSS4fzQ5p7N7iiAyHdoTLNxu+xAA4LWpXXpi+Gf/KLNW86yxJ5oP6+ilP4y9duvZqyR45yxUvaxUvw+296/tSeYJgd+M8nJ2VxFEJkODgoWQrscBAD47mpilbvwwSomxehfSn+aCOrZvkF95u8K3rN9rrlnFf+xlZ9f3iPPX7rA8VRoH2m6KILSAFgULiUOWAwD899QxS73T6bYycxYUalC3aslcSmtHbF2/xyxUV7UprezXC6n/LduuP5f3e9+Q9xfxTqBJwQJ+/oYBQPC2+maJoR2Ub6ljSWDJkoXy5MqXK1uQt+y6UXv370/3Z202taadumDbhOuGo9rnUj2//prCnhLvABoVLGwYEAcAPiu7mCXGtDyl9nl8ggIDA3PlHx8kq9bT/fv3G94C6Lr/WFpWXWk8HHzQeNhzdYcdwIOidjgLQbgYWhUsnO/8HADcp35uNk8U3vC6UnuCtNgrv86nfxgOPAaNV11M/v4s2nR8sMl766GL9LfLlROES6Gdxc9WVD9TBwBS/9fBzNM8eINdbls3uQGZ2TfnMauF4UPKgpLvqRhtEEB8nyHpeoVbiAbKk14R7wKaFSzkOzQEALCj0oJ0r/XSP1iVqj7jVHyMn2Va8E9L1y6aWAeS+VKKK5Y5uhxp8FhTwvgxdX29eutF1xBJ5mmDVeYfhwfuB7qrZp0gXBjNPhICwIJP9V4EZb7tZpwcT8oXZlbAZ2djIOHD1ZbVvCb0LQnElH4h6SRArWOeEktacqOuuaNF0dGD1BkFXW6b0UnW/WZJVWwThGujacHCyR4G0QlqVbO9fq+t5gfM8t3718zpNvFaxoql2uedqw80ms876ZnwSXKfUxp+4XA7i/BYAX2GVrH9mg91icyYOGiR7YYJwvXRtmDhZY8TpuOy7atXxJUhsXLq5z5cGng5Y6ZAL7gfaKS4eXs6We2fWPvj3lmVmTKy7T2OLRl9bxSyzSpBaAONCxaSxsyzpXrWTa0AoNda/iJ5L+SRai0j27pbR5II7P+xLXGUt/RM4kj9/RNbOoEgNIPWBQtYNizeluotBnXOitG/cWXpipX2xZPTKFSo1g++Cs2v75Mx9k2Nfr1zKzAFAJt7coXSab6Xdr8g3g20L1i43P2+lGKe302L5szwqd98Lsc0VqWfmvgBSCx/X/f5ZPkO70aM4XAs8GjZr4uSR8PdnZJ8Mz7yFj5LgSGIdwTtujWYqHy2g5RiRWvwDGvi903gmnav1sIPwIkG9zFnunK9QuuDHMupU3b2zTNwT4pcW0c/XxgV08U61XcL6RXxrpAJRlgA+2miel5OJrJ1apz1j6NAzte2PXC9fu8od0b2Tt1bZJFh6FzzNW0QVfGJZapuHflgEe8MmUKwgD19wjhSPdf5rf/LZtvuhxrYZiB50lQ+PQ1o362d1GfD643DSk1qMcBqowxM/N7mKyQIrZBJBAuPe5zjSC0zbvca221nmTzSRl+EE4Nv8eZlbdWurRRHr3uNOIOq9llBE+7Eu0NmESwkfrrQfsZzjhoZbJOBpNmTY4By/8vfgcsrAZXatK0v4k3/tNEjruQG++Q8VBKExsk0ggUsGZHAnxnIpMcjbd00ODEiMuTli+cRpjT/L77IiohtZ8ML9i2vqHUhM+bG1Oy0+TxffkDL1s2K81d/04gzOmGJk+JbZBBE5iETCRYu9HjIl+Vz45LYnqjmFKpSpWQcgLtr0rd2LrVpxdwoALoBf3G8NIwLFfU1D1/+91XhEgWbNmvKbSa86WWu5MAzFGmUeKfITIKFtwN3pHHnVLl4pm6aPGP8NNqdQbEOTtgqJazyjR27z4cbP7iVr73vUYYixZo2rlvCOjG6FXdkwjU91bomgtAEmUqwgJNDrCP4rap/aveu57oyNxXZ42bAUsvP8RPm7WymP0y9dzkiItU7KFupEjyTUo/uhIQm+HrlLVaMteHxd8hVp269Gmbz/BFtufWq2wa7dSRBuCSZTLCQ9MtPlouDfRf3RNrx1evMwvy17BF8bqZsr01z1vUw/3S9x62/hgJAxIZVp0yO6J4l6zRqWEzIyrQvBTI9KtepVrWCJwC8bs8z83XFllWJBKFBMptgAbc+No5b/OscTgJ0H/4aDKTs+Mo49ir6AEArBUGP08lzw+yl4aP6Lz6bASBk4qIMgRRKd+pUj3cxwbc/ip3Hq2K1qtXc33vEnRsULlbfiiW1lL0wIAiXgWU60v4K0l+a7o/QOSUA5F7DGGPJf2Q3Jqext9ls67VB6ad7XRKtUhhLmBrAXbTwt/d4GvrWxgGS+015HbPELc9pZ/9xCMImMt8IC8DLzwwxRj/43Wft1CtAx7kFAbydNE8f66DBuD/22HYG3c7WhqPQ1heKnsuG3aPu8Bdu8GEPzmCjMd/PsynSRM7PW1cyjN/YrTNPw+KyZi1cuiKfFi8dnAqviWNtWBdJEM4mUwoWsHfkXQBA4b/asI1f34bv//6XFcDNz3apdIL85/RRsm51uO92staNrzdnLJK7c8GNFw3Hvn1GVeAyEzpvgUi8UxF882YLABD+8K0xRVexWbNGGbeCTvrid32PfDJA8TaxBOFsMqlgIfGXKXo30v7Tc6csnvQC+X/u5wZgx5fXbDNspMb2XABb9Uk4yvz675qMLhP+k0Z6IaH6DVNC81EduGaz0k6s3fpY7at3r92hg+Xz5qnRZ9IzG1YrWCiPOwAgKTY8IiIyIjIiAQnIkTN/5YJqt4Ug1MTZz6R2414b/QUGTE9ksT9kBWocYYyx1LUVbOswI3lm711YnSO92JxCALo9ZYwxNtU8p/jMSO6m3vmzu41zahwUGbnxjcF+ws6OGbLdg4ODg4MzSmi56dHO/ssRBC+ZdYQFABs+1w9dSs1sj0ejtwJdJ5cHkLZ+skqjLHOy6veb8J005MON8Pr9Y33qacvNxAIGjeLZUzX1wv6DJ2KgLroiZYr5uYU8kWe46Aa5u5oRhKPIzIKF+Om/6GWk7exS2DPxJNz6TCwOIG39D2rvEN2/2CQAaLgke5fDyLe+riH5VV5jAb9CzyMBuHcZwxusJuXckSNHuZc8BlQvVdI/2CMFKW/D375+8uxFEuxH9gu0pQXhqjh7iGdfnvTWB1/xGhfF2J76gOfHTxhjLHWNyqOIqyMAoPfTv8sD9V6Yzp+kP32OL8+lsigPfdEaC6L4G5xydnI9dyvbul67E62Kpb04vfHXYS2KuMtpY5fBEgu+5+w/G0HwkMkFi7EjBmXKuyiFsX0tAO/RzxhjjB3ooGJ4aN1EAEBBNwAfm6tLFgBZp8Qyxlj6ds3+Hwn6Q72YZvHcWPAof9HEm9tmf9q+jHWIGV+umDOVkl5JvBrPEGf/1QiCm0z9SAgASFv8vX631bI/ddHh8ow1SV79x5UCgNuzltnkBsVNmx3mEfV8ElB8RykAONvSfAPUcvk881SoW40nmFX8xytMx1nPlxG/xuePQ16HhOw2+II1WbN0XMZCv4yLT1+f6J8zR/Yc2bNnz5YzEAnxSItMCX1x3LS0cXs79fuFINTA2YrpAGJ/NDih196ZxtizL4Ph9t55xhhjIT8o3W+LF7e7Fuf2QTb9+8IjXBEAszSe+Yirxalm+wyOkHydDw3eV9nCLN9OGig9wLDBotuU4xyvK0NWdjIV/d3ZfzKC4OZdECzG3nzqpb8Ty8yNZixmQRWg6bJYxhhLWK6fHy888+DJmUo3HzSnCWOMbSz1tf7EM4FpjDHGfucNKFr9pxtWrb3/Uzmz/NHnYwzpMW8FPQ5M2/OUiGXC+wgNPJ5iVi/s0tbfxrTIa15gmrP/YATBTeZ/JNRz/+u1+isNHDyyGHBi7vqkgJ5flAaAS/NWxuCrnwB8rEKU5RFzkTLle5Y1zBvAn58wrOgLRH5iesTzGtqn5udzLOuU7disofFpLXXPjP1WJnVBQYGB7NFTBsDH2z9Hnpy58+TMkztXTrNJuDvH/kmPVeMdGCqyi1D21pUQwaKiwkJCQzNudIi5I+z4pyAI5bwrggWcn7hdf61uHUc1A96s+OdqlgnjswBA1PJ51xv2aVqq9lk5BnsFzedIrXvw3OjzAHa1Bn78jgHN97gd+PCJrlWLGa8A5NxRA0kNMp7Hq3bFUjm8Eh9f2fdW7Lwm3HL6Bnv7BOkSYl4/kx4AWgqW4XMIwnVw9hDPgZztaJwOr7ggjjF2YXSe0ocMeYf6eMNfVsc1S7kolN0h5Vk3/dH7Y3Rof4MlFwLgdoyxBNdXg6vO/lMRBDfvzggLAM7/sM1wvdk/GlEIYFcOfWScuApf8fcVGaZ0lypt6gYAg1P/4SyQJ9QUIzDrzI91mPsJgHbb8bT3ifRCVWPvwPXIEu1puxGCsAOZYKt6GVTfcq6zfpQV9kvx945CV3m0aaI9+NPLZz7Wv070WHF7y3dthJf3+evGvAcAaF2Cu8Ark1557Riqw9X/AUDDxOWVTwAe9YoAQPXdayMAIHdT19pbsCbpFeGqOHuI53BufuxjvPZKf1m/dotZXB8A0GIPY+zOihGV1BD0IYyxF4UBAGUDAXiNDmGfAIHz0y7lAdwHnE977VpBqr519t+IIHh49wSLsTeTTN5XASOvWefe+CwnAFRdmcwYYxE7vmli47bPqLL//i2zlUDZzjB2whPVn7KjQUCnO4xFN1Bs2x40uO/svxBB8PBuzWEZSVgx27T6ufHwrl6WuUlbFu1NA4p+8ZE+I/nCiWPHX6t28kWDcKXpW9/l97adSHWb/SnwpoOst5N2psaEbs5uAkHw8W4KFsAOLtpo3Cg6V79B1pszPF6y+ClQ5PN+QcaUu6cvnL8YrcapJ35/soPRd2HGZ8Cpnk9tsqcm2boMrufsNhAEP++qYAEIX7HItJ1ynQ97W+0hkbprwfZU+HTt3Do93HDanasPwu/8lyz7VL5p5osWq92KMxzlfOmeNme8PUPFyMCzSrMWjWm6nXBp3mHBAnB20Sqjx2XWHoMaWs2wP1+06Ang2ahjh+Lmya/+WXRP3mmKn93yIWdGwNOXg487uxMA5ChXpUqV8l62GyII+/JuCxaQsGfD1gjDcf6evWpb5qbuXrA9BUDJ+vXqlU2Xs7QtU2TNOrnnesmTU+FeghxD6lO4YvnSZUqrH6CZIOzCuy5YAJIObNgcajgu2rtXZcvc5/MWvgEABNWrW6VcUaPD1LoRoZJP4KIUbVCnUsVA2+0QhOMgwQKA1EPr1ocZjst2aV/HIpBn4prfzxmPfcuWL1cwd84c2aKnznB2o23BvVmnDkWc3QiCkA0JloHkfWs2GyPsZW/dvnV288xTv21wkZlxVSgydEA+Z7eBIJRAgpVOwq41O42a5V6nbcOaPul5L/+5cOeuHeKTOoHiX/ejd4GERiHBsiDpyNZtj4wfPGvUbVjXLCQpe3Lnzp3bd56kKjDsFNzLlilcOA+Q8vLJ/RMG1y/v8eOz2GaVIJwHCVYGrvz331nTwmWUrFm+bLniHmb5ifdu37l7+7aLT7q712ndoIZZwJy0SweWXwHKrxePEE8QLgsJFhdRh/btu2n22atU2bJlS5a08C19e+f2nTv3HkU4u61cZG3fvRVHDPnjf2K+n7PbRhA2QILFx4t9B09YBavKXapkqZIlS1qEVgh/+PDRw6chb15n3F05W5GiZStX8V/053OHNty73fvtbF2vTRCuCQmWEK9PHD1xwXoljq5gyZIlS5UqajVzHR/yKiomOS0S8QlBuiDf7NnzGgczybu2bHvjoBa7N3+/K/lWEZkWEiwx4i6cO3/uTlqGdI8iJUuVLFmqkKSIWWlXz52/+fypwa3dIzAwOCgoODg4ONg9CIhNCAl9fu1mpBRDgrjV7/me6vuWEYQLQYIliaiL5y5fu5HIkZOleKnixYsVLyzJUyAuMTLNPcCLezux2/v37dU/V7q17lAk8QOZ+0pkadSla155VQhCa5BgSSflzrUr124/4HQh9ShYvFjx4sWKB8g1akH02oWnAUz8HjjaVIb3hHv5Bq2bq7GrIkG4NiRYckl9cu/evbt3uXULOQoWKJi/QMF8hXxkmgV7dP36tRs34wEEDG75YlSccHGPfNHRKfAIyF6oVMlKteRt+EMQWoUESyF63Xr6gm82PXu+Qvnz58yVM3uOHO6ChiJCXj968vjxk0dS/eg9S5YvW75saS8ggcmWRYLQNCRYNpL4/PnTF8+ePX/6ivcRLjggIMA/IMg9AAHuWbIC4QBSoxLio5NCQ8PSNwMTxb1gieLFS5QpQQtriHcWEiy1SH317E3Iq5CQN69DQqSLkBTc8xQuWKBQiccS7wgAAAJmSURBVOJFKcIe8a5DgmUPQkNC3rwOCwt7GxYaqnQTebdcufLmyp03b8FC+TwUmiCIzAYJlr1JNghXWFhYWNhbgVd/uiA/X9/gbPr/suXK9W7tcUsQUiDBcixvw8LCwsLCUny9AMDTDwHu3j7uAW6B/r60nIYgxCDBIghCM9BzB0EQmoEEiyAIzUCCRRCEZiDBIghCM5BgEQShGUiwCILQDCRYBEFoBhIsgiA0AwkWQRCagQSLIAjNQIJFEIRmIMEiCEIzkGARBKEZSLAIgtAMJFgEQWgGEiyCIDQDCRZBEJqBBIsgCM1AgkUQhGYgwSIIQjOQYBEEoRlIsAiC0AwkWARBaAYSLIIgNAMJFkEQmoEEiyAIzUCCRRCEZiDBIghCM5BgEQShGUiwCILQDCRYBEFoBhIsgiA0AwkWQRCagQSLIAjNQIJFEIRmIMEiCEIzkGARBKEZSLAIgtAMJFgEQWgGEiyCIDQDCRZBEJqBBIsgCM1AgkUQhGYgwSIIQjOQYBEEoRlIsAiC0AwkWARBaAYSLIIgNAMJFkEQmoEEiyAIzUCCRRCEZiDBIghCM5BgEQShGUiwCILQDCRYBEFoBhIsgiA0AwkWQRCagQSLIAjNQIJFEIRmIMEiCEIzkGARBKEZSLAIgtAMJFgEQWgGEiyCIDQDCRZBEJqBBIsgCM1AgkUQhGYgwSIIQjOQYBEEoRlIsAiC0AwkWARBaAYSLIIgNAMJFkEQmoEEiyAIzUCCRRCEZiDBIghCM5BgEQShGUiwCILQDCRYBEFoBhIsgiA0AwkWQRCagQSLIAjNQIJFEIRm+D8mTgk2QuszyQAAAHh0RVh0Y29tbWVudABUaGlzIGltYWdlIGlzIGZyb20gW1ZlY3RvckxvZ29ab25lXShodHRwczovL3d3dy52ZWN0b3Jsb2dvLnpvbmUvbG9nb3MvcG9jb29fZmxhc2svcG9jb29fZmxhc2stYXIyMS5zdmcpLiAgRW5qb3khsaMlFAAAACV0RVh0ZGF0ZTpjcmVhdGUAMjAyMy0xMS0yMlQwMjoxMjoyOSswMDowMKZnPRAAAAAldEVYdGRhdGU6bW9kaWZ5ADIwMjMtMTEtMjJUMDI6MTI6MjkrMDA6MDDXOoWsAAAAAElFTkSuQmCC;" vertex="1" parent="1">
          <mxGeometry x="510" y="254.95" width="92.19" height="46.1" as="geometry" />
        </mxCell>
        <mxCell id="NjmknjeXAfmQ-sKLG7hu-25" value="" style="rounded=1;whiteSpace=wrap;html=1;" vertex="1" parent="1">
          <mxGeometry x="290" y="231.6" width="120" height="60" as="geometry" />
        </mxCell>
        <mxCell id="NjmknjeXAfmQ-sKLG7hu-10" value="" style="shape=image;imageAspect=0;aspect=fixed;verticalLabelPosition=bottom;verticalAlign=top;image=data:image/png,iVBORw0KGgoAAAANSUhEUgAAASgAAACqCAMAAAAp1iJMAAAAwFBMVEX///8Ol0ghIiEAAAAAkjwAlEEPEQ8AlUQdHh10uYur07cbHBsAjjAYGRiMjIxGpmhKS0rp6el8fHxSU1JfX19XrXUrLCuczKzg4ODCwsILDQuam5oAjS8ABQAAkDfw8PD29vbLy8vV1dXm9Ou4uLiqqqo2NzZzc3OEhIQ+Pz7b29u74MjY7+DK5NM7o2FkZGT0//khn1RSsHR9w5cso1vN5dWKxJ9kuIKjzrCHwZovMC+6urqXl5d1dnW02MCt271valx2AAAKNElEQVR4nO2da0PaPBTHe2+RmwxRQCgFZFO8odOJc4/7/t/qaZu0zWmTUiBaV87/xYYhhPRHcnJy0qSKgkKhUCgUCoVCoVAoFAqFQqFQKBQKhUKhUCgUCvXZWt2UXYN/QtcPDXf0iKw26ObOtVVVtUe1VdlV+cpa1RoBpkBm46zs2nxdnbmmmshQr8uu0NfU9YOhAtnu3bzsSn09zduuraZlu7Wy6/XFtKpxMIWmykVTxQgaJyj3AU0VVcY4pfvfI5oqX/NHQa9j+l/jZ9m1LF8/c3odg8o8Krui5erILIIpNFVPz2VXtjw9P7kFMfmyGy8HaqrmL41NxinV/9xfZde5DP1qFO11iQzzvexqf7be7VyXQCj37qBM1fPdFsYJ6pBM1dbGCepgTNUuxgnqIAIw1+ZuxgnKvat4rPhmd+MEVe1Y8ao22sc4QVXYVOUFU3ZRRU3VtSrDOAFVMVZMl6Gko2pUy1RJNU5QlYoV/93bc8qToVbFVfg7+kBMatD/KmKpJLlOYpl3ZV+iFL1/OCi1Gk3qZ56BMg3DKGDAzPxcbiUcqpr4Eg2ztl6vX+wNroPtvqzXrzl+mFGJpQcxKHdNs9y287qn2SY960yYqeKgXGZYf28IOdntKNORiFS1QRnAU3wW+hCMpe4Jumi1Qbkw25GgTdm9JM+toElVGpSddn5e+RTYhrcSwJQIyptdtC59tS5mnrRCi0kEqp3O2ONmBD10V1DdU19aCyYOrCDxG5t00dV13Qrlvzi+YN+714Ls3fB1UNyps4DltZwgMfiSP02SwYMZOsMwWV/yK1kYlPLEM0FSQB03HV96HyQOdD9tyIBaDPWmxqiujxkWJ5afvUlANetBeWMIojUMygt/DS18fwh+BP/nCmsxvhRUsjiolckhJQdUPbjw5glIHOh+mhVfjHesaxnpxzGMkwBinYBywjet/yAoK0hrxUX7n56x71+EiY4jqmRxUMoNx0xJBKXpAzEoT7OynHy42kQISoOdiAFFMmv178zb3phThx1B8eaFMkE5v8WgrqJe1wzMk27Ff16JQTWPRaA6tEmdJ2//sDiteldQyq8MKZmgNJ21vwDUOe13lt5tDXy1TvShBi6WA0rT3wSgovL0TvTulCZMFJG2AqW8pGd0UkFpuicANabvX8ZXNmnp4DM8UI4mAqX8DvM076N3T510E9sPlHKXyi4XlMUMRCyoN51jQGY0kXgJPFDa+I8I1AyW2BpmjNaeoFY2HPrkgmLtLwvqW2hAxinPaBFeLB3cuKDYrgRBUZtE21yfNwzuByo99EkGVU/sLwvqKsiQHbnDa60Tc84HZf2IM6dAeYQNcaxIBayUYwW1LSjlGuCQDIqxvywotukwIg3NCl/zQTGNJAWKtkctcHPpy3FuJYuAgjs5wNAnEVT4j9MUghpmLO0itCy6AFSdaW8cUKSZBj7EBBi7fUC1X+BHmKFPHqh6twnsbxFQ4cRPAIqWF19+BlRkmN5+hBnp9GcvUL0RXMZkhj55oPTplcPa3wKgpt+CSMIlH5S+dIL/HUsESvlGXLEhcV4Tn2oPUPYIrA94ajz0yQRFhuzItykAilUWVIfM3oaUTRaU0mSM2biVKRKqGKjUktM8NlMyQdEpmP8i0N6g+tT20abCAfWWzLOd0w11LArKtsHtFrdRaFgqKDIFc4jbJwEUbaJk/sYBpXTjuA39dXJUEFR6vTdac5EKijrIZMonAZRybyUQeKAmUZOy7rMlplQUlGpwhz65oBQrvMZhkCgG1dGhPCEoAoJ0Kx4o5ZxOrYfiyfDWoNTUzYZt8wNAUft7uQGUxor4iVxQyvk4bqJcUPek7zV/KBtVHJTagDs4wqFPMijqBQb2VwqoKCrg8UFNo5I2m6htQKkNcKvTvPEBoJbE/nZlgSJR36AYHqjTOCCTFzfYHpRtZoY+2aDorN7/Qw4oOrD5f3BAnScF5UWitgel2k/gs2tXPigvsr95oIZEVgFQ/aiJZkFNWOA5sc0dQKlGD37YkA6KTuX1xXSze3Ax3gxKuSQux/RPBhTxbzUy8OVEy3cBpbqv4NNtVzooajicMDSwYVJcBBQJIzvfMy0qCpMvNq2/7ARKbcCrVuWDohdgaZJAkSbqhM2HBaURn+2Strl49iwJlNoAexfn8kFFXSINKu0D+b3KKgJK+c5EPJMyiCV36iwyqaBUQ3hLpiRQfT0NKrwS5yr9uTAuQ0f2HFAznQMqitYFHS5au+grOdoeVGrokw+KTvkYUMSBTsf+wZw3B1TkfwNQJI3GdOjKMVgwTWt7UKrZE5QlC5RXdyAoYowcDQzhHlmbo6YrD1TiB8Sg4IJntHIMg8Getyco1RCcMSILFJ3yJaDolTY1pk3NfjfZDpMHik75WFCpBc8/dORj0Exmnc6U+WV2AaW6/EuXBipel4lWkP4jvqWjnyxmnq/ZoqvTe1bofDYXVBzLhEvqycoDXTlmVrcmy0mnr0wTcjuBUhu3Hwsqsr8RKE+PbrwYk9DKODI7kUedD2qgA1CRJU+WW6OuGDfZmTLwvKmSNOHdQPGHPnmg6JQvWZOcwfldrPhT+aCU4yYLigT0gD9AV47jG2o6ynTp97ykUjuCsh8+FhT9zZPF2ym83Y62r5TzJQZFXQ4Capq4UOkvjK1W0KIms/1blGpylpIlgqJWhFnlnnTTqJr6cbLEtAEUdb8JKGKQUnOWBRgHlUl/Ehgqb29QqpE9CXBXUN9Ds5Oaa2lhIht6nJ4Ed5AFq3WOE9xPdsKi7YbZiXUmZgyC8khi0Nta5GV6wfM3SY6cqf7Mb1HMWt/OoJItIHuD6oTyYKIXJsLghzdodU99TNppt/UG809IIUx5qS9Jyutwv49m6DDuF/jyIveZt/lbEkapoe8T7jMvUcKdC0wwU7RxyoVD30HuXFCNpGO9i0DZKggNH+ZemMRTmot39NnszmrhPrSKg7JNYoKe7Zx9jXajRnl6tUPdrxcc2nN2dNYWb9ULZTaefq6Pzno5B5ZUHpRqG4ax+egI29yQrRp7io+kn8mSUTV2qX/8uQeZrX//qPAkjaLCs1mKCk/7KSxph9tB2Y2XSp0fFehjTiSrTq9j9AvPuCsoPDWxsCSew1k94wT1jie7FpWEs4LtqhonqHkPT58uqK0etgB1SOeZB/q7o6ly71LrDf1Zf5m3Ufff1+tOz1z4myql3+n0J97mm93/Zc0ft36Kx2vGJZgpA2U26Xsl1P8Tdfuw1XNhelnj5C2Vi/40uOGh4lobRU2V+8S9D2jpt6ipN6k8qODZVUX6n2FkVteJZj6qqtsoqpsCT0NzxU9Dm3YUb+p9Wm1L1X7P15ssD6DfRcp7yICBT2xkxDygON3rqhXp3V833KfKVuxJAXKUiRVX8dkTcnQGZjXVjfTuLyZWbI7QOOWJPhal2k9ckqPrh5E7ejyASO/+WiElFAqFQqFQKBQKhUKhUCgUCoVCoVAoFAqFQqFQof4HSHflCl7+k/oAAAAASUVORK5CYII=;" vertex="1" parent="1">
          <mxGeometry x="306" y="235.75" width="90" height="51.69" as="geometry" />
        </mxCell>
        <mxCell id="NjmknjeXAfmQ-sKLG7hu-29" value="" style="endArrow=classic;html=1;rounded=0;" edge="1" parent="1">
          <mxGeometry width="50" height="50" relative="1" as="geometry">
            <mxPoint x="220" y="262" as="sourcePoint" />
            <mxPoint x="287" y="261.61657587548643" as="targetPoint" />
          </mxGeometry>
        </mxCell>
        <mxCell id="NjmknjeXAfmQ-sKLG7hu-32" value="" style="endArrow=classic;html=1;rounded=0;" edge="1" parent="1">
          <mxGeometry width="50" height="50" relative="1" as="geometry">
            <mxPoint x="410" y="249.76" as="sourcePoint" />
            <mxPoint x="440" y="250.20999999999998" as="targetPoint" />
          </mxGeometry>
        </mxCell>
        <mxCell id="NjmknjeXAfmQ-sKLG7hu-33" value="" style="endArrow=classic;html=1;rounded=0;entryX=0.262;entryY=0.768;entryDx=0;entryDy=0;entryPerimeter=0;" edge="1" parent="1">
          <mxGeometry width="50" height="50" relative="1" as="geometry">
            <mxPoint x="439.96" y="277.98" as="sourcePoint" />
            <mxPoint x="410.00000000000006" y="277.75800000000004" as="targetPoint" />
          </mxGeometry>
        </mxCell>
        <mxCell id="NjmknjeXAfmQ-sKLG7hu-36" value="" style="endArrow=classic;html=1;rounded=0;" edge="1" parent="1">
          <mxGeometry width="50" height="50" relative="1" as="geometry">
            <mxPoint x="80" y="260.46" as="sourcePoint" />
            <mxPoint x="110" y="260.90999999999997" as="targetPoint" />
          </mxGeometry>
        </mxCell>
        <mxCell id="NjmknjeXAfmQ-sKLG7hu-38" value="" style="edgeStyle=elbowEdgeStyle;elbow=horizontal;endArrow=classic;html=1;curved=0;rounded=0;endSize=8;startSize=8;" edge="1" parent="1">
          <mxGeometry width="50" height="50" relative="1" as="geometry">
            <mxPoint x="620" y="275.75" as="sourcePoint" />
            <mxPoint x="720" y="180" as="targetPoint" />
            <Array as="points">
              <mxPoint x="640" y="230" />
            </Array>
          </mxGeometry>
        </mxCell>
        <mxCell id="NjmknjeXAfmQ-sKLG7hu-39" value="" style="edgeStyle=elbowEdgeStyle;elbow=horizontal;endArrow=classic;html=1;curved=0;rounded=0;endSize=8;startSize=8;" edge="1" parent="1">
          <mxGeometry width="50" height="50" relative="1" as="geometry">
            <mxPoint x="620" y="291.6" as="sourcePoint" />
            <mxPoint x="720" y="410" as="targetPoint" />
            <Array as="points">
              <mxPoint x="640" y="350" />
            </Array>
          </mxGeometry>
        </mxCell>
        <mxCell id="NjmknjeXAfmQ-sKLG7hu-47" value="" style="edgeStyle=elbowEdgeStyle;elbow=vertical;endArrow=classic;html=1;curved=0;rounded=0;endSize=8;startSize=8;" edge="1" parent="1" source="NjmknjeXAfmQ-sKLG7hu-11">
          <mxGeometry width="50" height="50" relative="1" as="geometry">
            <mxPoint x="420" y="490" as="sourcePoint" />
            <mxPoint x="40" y="320" as="targetPoint" />
            <Array as="points">
              <mxPoint x="20" y="490" />
            </Array>
          </mxGeometry>
        </mxCell>
        <mxCell id="NjmknjeXAfmQ-sKLG7hu-48" value="" style="edgeStyle=elbowEdgeStyle;elbow=vertical;endArrow=classic;html=1;curved=0;rounded=0;endSize=8;startSize=8;" edge="1" parent="1" target="NjmknjeXAfmQ-sKLG7hu-11">
          <mxGeometry width="50" height="50" relative="1" as="geometry">
            <mxPoint x="780" y="461.5" as="sourcePoint" />
            <mxPoint x="170" y="490" as="targetPoint" />
            <Array as="points">
              <mxPoint x="770" y="491.5" />
            </Array>
          </mxGeometry>
        </mxCell>
        <mxCell id="NjmknjeXAfmQ-sKLG7hu-11" value="Amazon Cloudfront" style="sketch=0;outlineConnect=0;fontColor=#232F3E;gradientColor=none;strokeColor=#ffffff;fillColor=#232F3E;dashed=0;verticalLabelPosition=middle;verticalAlign=bottom;align=center;html=1;whiteSpace=wrap;fontSize=10;fontStyle=1;spacing=3;shape=mxgraph.aws4.productIcon;prIcon=mxgraph.aws4.cloudfront;" vertex="1" parent="1">
          <mxGeometry x="430" y="450" width="80" height="110" as="geometry" />
        </mxCell>
      </root>
    </mxGraphModel>
  </diagram>
</mxfile>
